<svg width="176" height="24" viewBox="0 0 176 24" fill="none" xmlns="http://www.w3.org/2000/svg">
<path d="M172.178 2.4589V0.339041H172.979V0H171V0.339041H171.801V2.4589H172.178Z" fill="white"/>
<path d="M174.23 2.4589H174.552L175.333 0.575343V2.4589H175.682V0H175.216L174.395 1.99658L173.569 0H173.107V2.4589H173.453V0.578767L174.23 2.4589Z" fill="white"/>
<path d="M11.264 23.04H13.952V12.16C13.952 8.128 11.52 5.76 7.328 5.76C3.36 5.76 0.64 8.288 0.48 12.096H3.424C3.52 9.728 4.96 8.32 7.328 8.32C9.568 8.32 10.88 9.696 10.88 12.128V13.376C9.504 13.216 8.704 13.184 7.712 13.184C2.656 13.184 0 14.912 0 18.24C0 21.344 2.304 23.36 5.824 23.36C8.32 23.36 10.208 22.304 11.264 20.416V23.04ZM3.072 18.144C3.072 16.16 4.672 15.2 7.904 15.2C8.736 15.2 9.632 15.232 10.88 15.392V16.768C10.88 19.36 9.184 21.056 6.464 21.056C4.384 21.056 3.072 19.904 3.072 18.144Z" fill="white"/>
<path d="M31.7133 17.984C31.7133 15.552 30.1133 14.08 26.7533 13.472L23.8733 12.928C21.8253 12.544 20.9613 11.904 20.9613 10.528C20.9613 9.056 22.3372 8.192 24.3853 8.192C26.6572 8.192 28.1613 9.376 28.3533 11.424H31.4573C31.1693 7.936 28.4173 5.76 24.3533 5.76C20.4172 5.76 17.8253 7.84 17.8253 10.816C17.8253 13.376 19.5853 14.976 22.7213 15.584L25.4733 16.096C27.5853 16.512 28.4493 17.12 28.4493 18.528C28.4493 20.128 26.9453 20.928 24.6733 20.928C22.0812 20.928 20.3853 19.616 20.2572 17.504H17.1532C17.4732 21.152 20.1293 23.36 24.6093 23.36C29.1213 23.36 31.7133 21.312 31.7133 17.984Z" fill="white"/>
<path d="M39.178 2.144C39.178 0.896 38.218 0 36.842 0C35.466 0 34.474 0.896 34.474 2.144C34.474 3.36 35.466 4.288 36.842 4.288C38.218 4.288 39.178 3.36 39.178 2.144ZM38.474 23.04V6.08H35.242V23.04H38.474Z" fill="white"/>
<path d="M52.5288 19.904C51.8568 20.224 51.1848 20.352 50.4168 20.352C48.6888 20.352 47.5688 19.52 47.5688 17.184V8.832H52.6888V6.08H47.5688V1.056H44.3368V6.08H40.5928V8.832H44.3368V17.92C44.3368 21.664 46.5127 23.36 49.6488 23.36C50.6728 23.36 51.5368 23.2 52.5288 22.752V19.904Z" fill="white"/>
<path d="M59.0052 14.368C59.0052 10.624 61.6612 9.024 65.3092 9.216V5.856C62.5252 5.856 59.9652 7.328 58.7812 9.664V6.08H55.7733V23.04H59.0052V14.368Z" fill="white"/>
<path d="M78.139 23.04H80.827V12.16C80.827 8.128 78.395 5.76 74.203 5.76C70.235 5.76 67.515 8.288 67.355 12.096H70.299C70.395 9.728 71.835 8.32 74.203 8.32C76.443 8.32 77.755 9.696 77.755 12.128V13.376C76.379 13.216 75.579 13.184 74.587 13.184C69.531 13.184 66.875 14.912 66.875 18.24C66.875 21.344 69.179 23.36 72.699 23.36C75.195 23.36 77.083 22.304 78.139 20.416V23.04ZM69.947 18.144C69.947 16.16 71.547 15.2 74.779 15.2C75.611 15.2 76.507 15.232 77.755 15.392V16.768C77.755 19.36 76.059 21.056 73.339 21.056C71.259 21.056 69.947 19.904 69.947 18.144Z" fill="white"/>
<path d="M98.5882 17.984C98.5882 15.552 96.9883 14.08 93.6283 13.472L90.7483 12.928C88.7003 12.544 87.8363 11.904 87.8363 10.528C87.8363 9.056 89.2123 8.192 91.2603 8.192C93.5323 8.192 95.0362 9.376 95.2282 11.424H98.3323C98.0443 7.936 95.2923 5.76 91.2282 5.76C87.2923 5.76 84.7002 7.84 84.7002 10.816C84.7002 13.376 86.4603 14.976 89.5963 15.584L92.3483 16.096C94.4603 16.512 95.3242 17.12 95.3242 18.528C95.3242 20.128 93.8203 20.928 91.5482 20.928C88.9562 20.928 87.2602 19.616 87.1322 17.504H84.0283C84.3483 21.152 87.0042 23.36 91.4843 23.36C95.9963 23.36 98.5882 21.312 98.5882 17.984Z" fill="white"/>
<path d="M111.466 19.904C110.794 20.224 110.122 20.352 109.354 20.352C107.626 20.352 106.506 19.52 106.506 17.184V8.832H111.626V6.08H106.506V1.056H103.274V6.08H99.5303V8.832H103.274V17.92C103.274 21.664 105.45 23.36 108.586 23.36C109.61 23.36 110.474 23.2 111.466 22.752V19.904Z" fill="white"/>
<path d="M125.303 16.064C125.303 18.72 123.543 20.512 121.367 20.512C119.255 20.512 117.783 19.296 117.783 16.352V6.08H114.551V16.992C114.551 21.344 116.919 23.36 120.343 23.36C122.647 23.36 124.631 22.112 125.527 20.352V23.04H128.535V6.08H125.303V16.064Z" fill="white"/>
<path d="M131.807 14.56C131.807 19.648 134.751 23.36 139.327 23.36C141.727 23.36 143.775 22.144 144.991 20V23.04H147.999V0.0639992H144.767V8.992C143.583 6.912 141.599 5.76 139.327 5.76C134.751 5.76 131.807 9.408 131.807 14.56ZM135.167 14.56C135.167 10.72 137.151 8.608 139.967 8.608C142.655 8.608 144.767 10.688 144.767 14.496C144.767 18.24 142.719 20.48 139.967 20.48C137.151 20.48 135.167 18.336 135.167 14.56Z" fill="white"/>
<path d="M156.428 2.144C156.428 0.896 155.468 0 154.092 0C152.716 0 151.724 0.896 151.724 2.144C151.724 3.36 152.716 4.288 154.092 4.288C155.468 4.288 156.428 3.36 156.428 2.144ZM155.724 23.04V6.08H152.492V23.04H155.724Z" fill="white"/>
<path d="M167.315 23.36C172.115 23.36 175.635 19.584 175.635 14.56C175.635 9.536 172.115 5.76 167.315 5.76C162.515 5.76 158.995 9.536 158.995 14.56C158.995 19.584 162.515 23.36 167.315 23.36ZM167.315 20.512C164.531 20.512 162.355 18.272 162.355 14.56C162.355 10.848 164.531 8.64 167.315 8.64C170.099 8.64 172.307 10.848 172.307 14.56C172.307 18.272 170.099 20.512 167.315 20.512Z" fill="white"/>
</svg>
