<svg width="154" height="110" viewBox="0 0 154 110" fill="none" xmlns="http://www.w3.org/2000/svg">
<g filter="url(#filter0_d_10_2)">
<path fill-rule="evenodd" clip-rule="evenodd" d="M83 44V52V60C86.1754 60 100.5 60 100.5 60C105 57.5 104.5 54.7375 104.5 52C104.5 49.2624 105 45.5 100.5 44H91.75H83ZM83 69H101C106.325 69 107.591 67.1085 110 64C112.5 61.0014 113 54.6991 113 52C113 49.4174 112.5 43.5607 110 41C107.484 38.3977 106 35.5 99.0588 35.5H83C83 35.5 72.3552 42.456 70 44C70 57.4693 70 81.3103 70 101.5H83V69Z" fill="#5872F8"/>
</g>
<g filter="url(#filter1_d_10_2)">
<path d="M94.667 15.17C93.749 15.17 92.8877 14.9943 92.083 14.643C91.2897 14.2917 90.587 13.8043 89.975 13.181C89.3743 12.5463 88.904 11.821 88.564 11.005C88.224 10.1777 88.054 9.29367 88.054 8.353C88.054 7.42367 88.2183 6.551 88.547 5.735C88.887 4.90767 89.3573 4.18233 89.958 3.559C90.57 2.93567 91.2727 2.44833 92.066 2.097C92.8707 1.73433 93.7377 1.553 94.667 1.553C95.483 1.553 96.2253 1.672 96.894 1.91C97.5627 2.148 98.2087 2.52767 98.832 3.049C98.934 3.12833 98.9907 3.22467 99.002 3.338C99.0247 3.44 99.0133 3.542 98.968 3.644C98.9227 3.73467 98.8547 3.80267 98.764 3.848C98.7413 3.93867 98.6847 4.00667 98.594 4.052C98.5033 4.09733 98.3957 4.11433 98.271 4.103C98.1577 4.09167 98.0443 4.04067 97.931 3.95C97.489 3.56467 97.0073 3.28133 96.486 3.1C95.9647 2.90733 95.3583 2.811 94.667 2.811C93.9303 2.811 93.239 2.95833 92.593 3.253C91.9583 3.54767 91.3973 3.95 90.91 4.46C90.4227 4.97 90.0373 5.55933 89.754 6.228C89.482 6.89667 89.346 7.605 89.346 8.353C89.346 9.12367 89.482 9.84333 89.754 10.512C90.0373 11.1807 90.4227 11.77 90.91 12.28C91.3973 12.79 91.9583 13.1923 92.593 13.487C93.239 13.7703 93.9303 13.912 94.667 13.912C95.2903 13.912 95.8797 13.81 96.435 13.606C96.9903 13.402 97.5173 13.1073 98.016 12.722C98.152 12.6087 98.2937 12.5633 98.441 12.586C98.5997 12.6087 98.7357 12.6767 98.849 12.79C98.9623 12.9033 99.019 13.0507 99.019 13.232C99.019 13.3227 99.0077 13.4077 98.985 13.487C98.9623 13.555 98.9113 13.6287 98.832 13.708C98.254 14.2407 97.608 14.6203 96.894 14.847C96.18 15.0623 95.4377 15.17 94.667 15.17ZM99.019 13.232L97.727 12.96V9.543H95.075C94.8823 9.543 94.7237 9.48633 94.599 9.373C94.4743 9.25967 94.412 9.118 94.412 8.948C94.412 8.778 94.4743 8.642 94.599 8.54C94.7237 8.42667 94.8823 8.37 95.075 8.37H98.356C98.5487 8.37 98.7073 8.43233 98.832 8.557C98.9567 8.67033 99.019 8.82333 99.019 9.016V13.232ZM107.392 15C107.2 15 107.041 14.9377 106.916 14.813C106.792 14.6883 106.729 14.5297 106.729 14.337V2.386C106.729 2.19333 106.792 2.03467 106.916 1.91C107.041 1.78533 107.2 1.723 107.392 1.723C107.585 1.723 107.744 1.78533 107.868 1.91C107.993 2.03467 108.055 2.19333 108.055 2.386V14.337C108.055 14.5297 107.993 14.6883 107.868 14.813C107.744 14.9377 107.585 15 107.392 15ZM117.104 15C116.923 15 116.764 14.9377 116.628 14.813C116.504 14.6883 116.441 14.5297 116.441 14.337V2.386C116.441 2.20467 116.504 2.05167 116.628 1.927C116.764 1.791 116.923 1.723 117.104 1.723C117.286 1.723 117.439 1.791 117.563 1.927C117.699 2.05167 117.767 2.20467 117.767 2.386V13.742H124.414C124.596 13.742 124.749 13.8043 124.873 13.929C125.009 14.0423 125.077 14.1897 125.077 14.371C125.077 14.5523 125.009 14.7053 124.873 14.83C124.749 14.9433 124.596 15 124.414 15H117.104ZM132.842 15C132.65 15 132.491 14.9377 132.366 14.813C132.242 14.6883 132.179 14.5297 132.179 14.337V2.386C132.179 2.19333 132.242 2.03467 132.366 1.91C132.491 1.78533 132.65 1.723 132.842 1.723H140.815C140.997 1.723 141.15 1.78533 141.274 1.91C141.41 2.02333 141.478 2.17633 141.478 2.369C141.478 2.539 141.41 2.68633 141.274 2.811C141.15 2.93567 140.997 2.998 140.815 2.998H133.505V7.69H138.826C139.019 7.69 139.178 7.75233 139.302 7.877C139.427 8.00167 139.489 8.15467 139.489 8.336C139.489 8.51733 139.427 8.67033 139.302 8.795C139.178 8.91967 139.019 8.982 138.826 8.982H133.505V13.725H140.815C140.997 13.725 141.15 13.7873 141.274 13.912C141.41 14.0367 141.478 14.184 141.478 14.354C141.478 14.5467 141.41 14.7053 141.274 14.83C141.15 14.9433 140.997 15 140.815 15H132.842Z" fill="#F23333"/>
</g>
<g filter="url(#filter2_d_10_2)">
<path d="M88.969 100C88.7083 100 88.5213 99.8923 88.408 99.677C88.2947 99.4617 88.2833 99.252 88.374 99.048L93.372 87.182C93.4967 86.876 93.712 86.723 94.018 86.723C94.3127 86.723 94.5223 86.876 94.647 87.182L99.662 99.065C99.764 99.2803 99.747 99.49 99.611 99.694C99.4863 99.898 99.305 100 99.067 100C98.931 100 98.8063 99.966 98.693 99.898C98.591 99.83 98.506 99.728 98.438 99.592L93.763 88.253H94.29L89.581 99.592C89.5243 99.728 89.4393 99.83 89.326 99.898C89.224 99.966 89.105 100 88.969 100ZM90.091 96.838L90.601 95.699H97.503L98.013 96.838H90.091ZM112.601 100.17C111.683 100.17 110.821 99.9943 110.017 99.643C109.223 99.2917 108.521 98.8043 107.909 98.181C107.308 97.5463 106.838 96.821 106.498 96.005C106.158 95.1777 105.988 94.2937 105.988 93.353C105.988 92.4237 106.152 91.551 106.481 90.735C106.821 89.9077 107.291 89.1823 107.892 88.559C108.504 87.9357 109.206 87.4483 110 87.097C110.804 86.7343 111.671 86.553 112.601 86.553C113.417 86.553 114.159 86.672 114.828 86.91C115.496 87.148 116.142 87.5277 116.766 88.049C116.868 88.1283 116.924 88.2247 116.936 88.338C116.958 88.44 116.947 88.542 116.902 88.644C116.856 88.7347 116.788 88.8027 116.698 88.848C116.675 88.9387 116.618 89.0067 116.528 89.052C116.437 89.0973 116.329 89.1143 116.205 89.103C116.091 89.0917 115.978 89.0407 115.865 88.95C115.423 88.5647 114.941 88.2813 114.42 88.1C113.898 87.9073 113.292 87.811 112.601 87.811C111.864 87.811 111.173 87.9583 110.527 88.253C109.892 88.5477 109.331 88.95 108.844 89.46C108.356 89.97 107.971 90.5593 107.688 91.228C107.416 91.8967 107.28 92.605 107.28 93.353C107.28 94.1237 107.416 94.8433 107.688 95.512C107.971 96.1807 108.356 96.77 108.844 97.28C109.331 97.79 109.892 98.1923 110.527 98.487C111.173 98.7703 111.864 98.912 112.601 98.912C113.224 98.912 113.813 98.81 114.369 98.606C114.924 98.402 115.451 98.1073 115.95 97.722C116.086 97.6087 116.227 97.5633 116.375 97.586C116.533 97.6087 116.669 97.6767 116.783 97.79C116.896 97.9033 116.953 98.0507 116.953 98.232C116.953 98.3227 116.941 98.4077 116.919 98.487C116.896 98.555 116.845 98.6287 116.766 98.708C116.188 99.2407 115.542 99.6203 114.828 99.847C114.114 100.062 113.371 100.17 112.601 100.17ZM116.953 98.232L115.661 97.96V94.543H113.009C112.816 94.543 112.657 94.4863 112.533 94.373C112.408 94.2597 112.346 94.118 112.346 93.948C112.346 93.778 112.408 93.642 112.533 93.54C112.657 93.4267 112.816 93.37 113.009 93.37H116.29C116.482 93.37 116.641 93.4323 116.766 93.557C116.89 93.6703 116.953 93.8233 116.953 94.016V98.232ZM125.326 100C125.133 100 124.975 99.9377 124.85 99.813C124.725 99.6883 124.663 99.5297 124.663 99.337V87.386C124.663 87.1933 124.725 87.0347 124.85 86.91C124.975 86.7853 125.133 86.723 125.326 86.723H133.299C133.48 86.723 133.633 86.7853 133.758 86.91C133.894 87.0233 133.962 87.1763 133.962 87.369C133.962 87.539 133.894 87.6863 133.758 87.811C133.633 87.9357 133.48 87.998 133.299 87.998H125.989V92.69H131.31C131.503 92.69 131.661 92.7523 131.786 92.877C131.911 93.0017 131.973 93.1547 131.973 93.336C131.973 93.5173 131.911 93.6703 131.786 93.795C131.661 93.9197 131.503 93.982 131.31 93.982H125.989V98.725H133.299C133.48 98.725 133.633 98.7873 133.758 98.912C133.894 99.0367 133.962 99.184 133.962 99.354C133.962 99.5467 133.894 99.7053 133.758 99.83C133.633 99.9433 133.48 100 133.299 100H125.326ZM145.494 100.17C144.769 100.17 144.094 100.068 143.471 99.864C142.859 99.6487 142.326 99.3483 141.873 98.963C141.42 98.5777 141.074 98.13 140.836 97.62C140.745 97.4387 140.74 97.2743 140.819 97.127C140.91 96.9683 141.057 96.8607 141.261 96.804C141.42 96.7587 141.573 96.7757 141.72 96.855C141.879 96.9343 141.998 97.0533 142.077 97.212C142.247 97.5407 142.496 97.8353 142.825 98.096C143.154 98.3567 143.545 98.5607 143.998 98.708C144.451 98.844 144.95 98.912 145.494 98.912C146.095 98.912 146.627 98.8157 147.092 98.623C147.557 98.419 147.919 98.13 148.18 97.756C148.452 97.3707 148.588 96.906 148.588 96.362C148.588 95.6707 148.333 95.0757 147.823 94.577C147.313 94.0783 146.514 93.761 145.426 93.625C144.1 93.4663 143.063 93.0583 142.315 92.401C141.567 91.7323 141.193 90.9163 141.193 89.953C141.193 89.2617 141.374 88.661 141.737 88.151C142.111 87.641 142.621 87.25 143.267 86.978C143.913 86.6947 144.655 86.553 145.494 86.553C146.117 86.553 146.684 86.655 147.194 86.859C147.704 87.0517 148.146 87.3123 148.52 87.641C148.905 87.9583 149.217 88.3097 149.455 88.695C149.568 88.8763 149.602 89.052 149.557 89.222C149.523 89.392 149.427 89.5223 149.268 89.613C149.098 89.6923 148.922 89.7037 148.741 89.647C148.571 89.5903 148.441 89.4827 148.35 89.324C148.18 89.0633 147.965 88.8197 147.704 88.593C147.455 88.355 147.149 88.168 146.786 88.032C146.423 87.896 145.987 87.8223 145.477 87.811C144.582 87.811 143.862 88.0037 143.318 88.389C142.774 88.763 142.502 89.3127 142.502 90.038C142.502 90.4233 142.604 90.7803 142.808 91.109C143.012 91.4263 143.346 91.704 143.811 91.942C144.287 92.1687 144.922 92.3387 145.715 92.452C147.132 92.656 148.18 93.0923 148.86 93.761C149.551 94.4183 149.897 95.2797 149.897 96.345C149.897 96.957 149.784 97.501 149.557 97.977C149.342 98.453 149.03 98.8553 148.622 99.184C148.225 99.5013 147.755 99.745 147.211 99.915C146.678 100.085 146.106 100.17 145.494 100.17Z" fill="#5872F8"/>
</g>
<g filter="url(#filter3_d_10_2)">
<path fill-rule="evenodd" clip-rule="evenodd" d="M71 2L4 69H22L47.5 44H70L83 35.5V2.00001L71 2ZM70.5 35.5H55.5L70.5 20.5V35.5Z" fill="#F23333"/>
</g>
<defs>
<filter id="filter0_d_10_2" x="66" y="35.5" width="51" height="74" filterUnits="userSpaceOnUse" color-interpolation-filters="sRGB">
<feFlood flood-opacity="0" result="BackgroundImageFix"/>
<feColorMatrix in="SourceAlpha" type="matrix" values="0 0 0 0 0 0 0 0 0 0 0 0 0 0 0 0 0 0 127 0" result="hardAlpha"/>
<feOffset dy="4"/>
<feGaussianBlur stdDeviation="2"/>
<feComposite in2="hardAlpha" operator="out"/>
<feColorMatrix type="matrix" values="0 0 0 0 0 0 0 0 0 0 0 0 0 0 0 0 0 0 0.25 0"/>
<feBlend mode="normal" in2="BackgroundImageFix" result="effect1_dropShadow_10_2"/>
<feBlend mode="normal" in="SourceGraphic" in2="effect1_dropShadow_10_2" result="shape"/>
</filter>
<filter id="filter1_d_10_2" x="84.054" y="1.55301" width="61.4245" height="21.617" filterUnits="userSpaceOnUse" color-interpolation-filters="sRGB">
<feFlood flood-opacity="0" result="BackgroundImageFix"/>
<feColorMatrix in="SourceAlpha" type="matrix" values="0 0 0 0 0 0 0 0 0 0 0 0 0 0 0 0 0 0 127 0" result="hardAlpha"/>
<feOffset dy="4"/>
<feGaussianBlur stdDeviation="2"/>
<feComposite in2="hardAlpha" operator="out"/>
<feColorMatrix type="matrix" values="0 0 0 0 0 0 0 0 0 0 0 0 0 0 0 0 0 0 0.25 0"/>
<feBlend mode="normal" in2="BackgroundImageFix" result="effect1_dropShadow_10_2"/>
<feBlend mode="normal" in="SourceGraphic" in2="effect1_dropShadow_10_2" result="shape"/>
</filter>
<filter id="filter2_d_10_2" x="84.238" y="86.553" width="69.6589" height="21.617" filterUnits="userSpaceOnUse" color-interpolation-filters="sRGB">
<feFlood flood-opacity="0" result="BackgroundImageFix"/>
<feColorMatrix in="SourceAlpha" type="matrix" values="0 0 0 0 0 0 0 0 0 0 0 0 0 0 0 0 0 0 127 0" result="hardAlpha"/>
<feOffset dy="4"/>
<feGaussianBlur stdDeviation="2"/>
<feComposite in2="hardAlpha" operator="out"/>
<feColorMatrix type="matrix" values="0 0 0 0 0 0 0 0 0 0 0 0 0 0 0 0 0 0 0.25 0"/>
<feBlend mode="normal" in2="BackgroundImageFix" result="effect1_dropShadow_10_2"/>
<feBlend mode="normal" in="SourceGraphic" in2="effect1_dropShadow_10_2" result="shape"/>
</filter>
<filter id="filter3_d_10_2" x="0" y="2" width="87" height="75" filterUnits="userSpaceOnUse" color-interpolation-filters="sRGB">
<feFlood flood-opacity="0" result="BackgroundImageFix"/>
<feColorMatrix in="SourceAlpha" type="matrix" values="0 0 0 0 0 0 0 0 0 0 0 0 0 0 0 0 0 0 127 0" result="hardAlpha"/>
<feOffset dy="4"/>
<feGaussianBlur stdDeviation="2"/>
<feComposite in2="hardAlpha" operator="out"/>
<feColorMatrix type="matrix" values="0 0 0 0 0 0 0 0 0 0 0 0 0 0 0 0 0 0 0.25 0"/>
<feBlend mode="normal" in2="BackgroundImageFix" result="effect1_dropShadow_10_2"/>
<feBlend mode="normal" in="SourceGraphic" in2="effect1_dropShadow_10_2" result="shape"/>
</filter>
</defs>
</svg>
