<svg width="103" height="21" viewBox="0 0 103 21" fill="none" xmlns="http://www.w3.org/2000/svg">
<g clip-path="url(#clip0_343_3386)">
<path d="M69.3342 7.20048C68.1213 7.20048 67.2529 7.61397 66.8303 8.3996L66.6006 8.82227V7.40723H64.625V16.0445H66.7062V10.9081C66.7062 9.68143 67.3724 8.97389 68.5439 8.97389C69.7155 8.97389 70.2898 9.65843 70.2898 10.8529V16.0445H72.371V10.4808C72.3572 8.42716 71.227 7.20048 69.3342 7.20048ZM59.2543 7.20048C56.8009 7.20048 55.2756 8.73039 55.2756 11.1929V12.4058C55.2756 14.7765 56.8147 16.2466 59.2864 16.2466C60.9404 16.2466 62.1027 15.6402 62.8332 14.4089L61.5422 13.6692C61.2797 14.0221 60.9399 14.3103 60.549 14.5117C60.158 14.7132 59.7261 14.8226 59.2864 14.8316C58.0322 14.8316 57.2879 14.0598 57.2879 12.7642V12.4196H63.0951V10.977C63.0951 8.68444 61.5836 7.20048 59.2543 7.20048ZM61.2022 11.0091H57.2879V10.8024C57.2879 9.37819 57.9862 8.59715 59.2543 8.59715C60.5223 8.59715 61.2022 9.369 61.2022 10.6646V11.0091ZM92.9995 5.98758V4.33363H85.8094V5.98758H88.3316V14.3951H85.8094V16.0491H92.9995V14.3951H90.4772V5.98758H92.9995ZM38.4788 4.09473C35.2674 4.09473 33.2734 6.09785 33.2734 9.31846V11.0597C33.2734 14.2757 35.2674 16.2834 38.4788 16.2834C41.6902 16.2834 43.6841 14.2803 43.6841 11.0597V9.31846C43.6887 6.09785 41.6902 4.09473 38.4788 4.09473ZM41.5432 11.1791C41.5432 13.3201 40.4268 14.5468 38.4834 14.5468C36.54 14.5468 35.4236 13.3201 35.4236 11.1791V9.19901C35.4236 7.05806 36.54 5.83138 38.4834 5.83138C40.4268 5.83138 41.5432 7.05806 41.5432 9.19901V11.1791ZM50.2218 7.20048C49.7335 7.17668 49.2469 7.27465 48.8058 7.48556C48.3648 7.69648 47.983 8.01373 47.695 8.40879L47.4699 8.75336V7.40723H45.4943V19.017H47.5755V14.8132L47.796 15.144C48.0836 15.5124 48.4561 15.8057 48.8818 15.9985C49.3075 16.1914 49.7736 16.2781 50.2402 16.2512C52.032 16.2512 53.8422 15.0797 53.8422 12.4609V10.9908C53.8376 9.10712 52.7166 7.20048 50.2172 7.20048H50.2218ZM51.7609 12.3553C51.7609 13.7336 50.9477 14.6111 49.643 14.6111C48.4255 14.6111 47.5755 13.6922 47.5755 12.3874V11.1102C47.5755 9.78253 48.4347 8.85443 49.6613 8.85443C50.9569 8.85443 51.7655 9.71813 51.7655 11.1102L51.7609 12.3553ZM78.1001 4.33363L73.9009 16.0445H76.0005L76.8045 13.536H81.6285V13.559L82.4325 16.0445H84.5459L80.3467 4.33363H78.1001ZM77.3375 11.8821L79.2165 5.96002L81.091 11.8821H77.3375Z" fill="black"/>
<path d="M29.9543 9.9171C29.7395 9.10014 29.3187 8.35193 28.7322 7.74399C28.976 7.06882 29.0678 6.34817 29.0011 5.63344C28.9344 4.91871 28.7108 4.2275 28.3463 3.60911C27.7924 2.6806 26.9573 1.95254 25.9619 1.53044C24.9666 1.10834 23.8627 1.01412 22.8102 1.26142C22.2195 0.57351 21.4546 0.057189 20.5957 -0.233412C19.7368 -0.524012 18.8155 -0.578187 17.9285 -0.390258C17.0415 -0.202328 16.2214 0.220784 15.5541 0.83472C14.8869 1.44865 14.3971 2.2308 14.1361 3.09914C13.4208 3.22447 12.7413 3.50387 12.1447 3.91799C11.5481 4.3321 11.0487 4.87102 10.6812 5.49737C10.1357 6.42524 9.90832 7.5059 10.0335 8.57491C10.1588 9.6439 10.6298 10.6428 11.3749 11.4194C11.1311 12.0946 11.0393 12.8153 11.106 13.53C11.1727 14.2447 11.3963 14.9359 11.7608 15.5543C12.3112 16.4861 13.146 17.2167 14.1426 17.6385C15.1393 18.0603 16.2449 18.1511 17.297 17.8974C17.8859 18.5868 18.6494 19.1051 19.5075 19.3979C20.3655 19.6908 21.2866 19.7474 22.1741 19.5618C23.0616 19.3762 23.8828 18.9553 24.5516 18.3432C25.2205 17.7311 25.7123 16.9503 25.9756 16.0827C26.691 15.9573 27.3705 15.6779 27.9671 15.2638C28.5636 14.8497 29.063 14.3108 29.4306 13.6844C29.7647 13.1231 29.9831 12.5007 30.0731 11.8537C30.163 11.2067 30.1227 10.5482 29.9543 9.9171ZM26.1916 14.6355C26.1884 14.5814 26.171 14.5292 26.1411 14.484C26.1113 14.4388 26.07 14.4023 26.0216 14.3782V9.6966C26.0426 9.5995 26.0315 9.49821 25.9901 9.40793C25.9487 9.31764 25.8791 9.24321 25.7919 9.19579L21.1976 6.60001L22.8561 5.65817L26.7429 7.86804C27.1776 8.11278 27.559 8.44215 27.8643 8.83669C28.1697 9.23123 28.393 9.683 28.5209 10.1652C28.6494 10.6385 28.6818 11.1327 28.6163 11.6188C28.5508 12.1048 28.3887 12.5729 28.1396 12.9953C27.7006 13.7518 27.0118 14.3318 26.1916 14.6355ZM13.9156 4.52797C13.9187 4.58262 13.9366 4.6354 13.9674 4.68069C13.9981 4.72599 14.0405 4.76212 14.0902 4.78525V9.46686C14.0629 9.5635 14.0705 9.6666 14.1116 9.7582C14.1528 9.8498 14.2249 9.9239 14.3153 9.9676L18.9096 12.5634L17.251 13.5053L13.3459 11.2908C12.9111 11.046 12.5298 10.7167 12.2244 10.3221C11.9191 9.9276 11.6958 9.47588 11.5679 8.99364C11.4394 8.52033 11.407 8.02609 11.4725 7.54005C11.5379 7.054 11.7 6.58598 11.9492 6.16355C12.3936 5.40548 13.0893 4.82684 13.9156 4.52797ZM27.5653 6.85269C27.4674 6.80296 27.3549 6.78992 27.2483 6.81594L23.1593 4.49122C23.0724 4.4421 22.9743 4.41629 22.8745 4.41629C22.7747 4.41629 22.6765 4.4421 22.5896 4.49122L17.931 7.15132V5.22171L21.8913 3.01185C22.7685 2.51252 23.8065 2.37718 24.7824 2.6349C25.7583 2.89261 26.5942 3.52283 27.1104 4.39014C27.5478 5.13501 27.7088 6.01012 27.5653 6.86188V6.85269ZM20.0536 7.28456L22.1761 8.48827V10.7073L20.0536 11.8789L17.9356 10.6752V8.46989L20.0536 7.28456ZM21.2389 2.06083L17.081 4.38555C16.9912 4.43085 16.9188 4.50438 16.8748 4.59485C16.8308 4.68531 16.8177 4.78771 16.8376 4.88633V10.0411L15.1652 9.12228V4.80363C15.1678 4.77306 15.1678 4.74232 15.1652 4.71175C15.1736 3.98933 15.3865 3.28408 15.7793 2.67773C16.1721 2.07139 16.7288 1.58878 17.3846 1.28584C18.0405 0.98291 18.7688 0.87205 19.4851 0.96611C20.2014 1.06018 20.8764 1.35532 21.4319 1.81733C21.3412 1.87363 21.273 1.95972 21.2389 2.06083ZM12.5419 12.3015C12.6031 12.333 12.6706 12.3502 12.7394 12.3521C12.7791 12.3573 12.8192 12.3573 12.8589 12.3521L16.9478 14.6768C17.0346 14.7264 17.1328 14.7524 17.2327 14.7524C17.3326 14.7524 17.4308 14.7264 17.5175 14.6768L22.1807 12.0259V13.9555L18.2158 16.1516C17.3387 16.6509 16.3006 16.7862 15.3247 16.5285C14.3488 16.2708 13.513 15.6406 12.9967 14.7733C12.5594 14.0284 12.3983 13.1533 12.5419 12.3015ZM18.8682 17.1026L23.0307 14.7825C23.1205 14.7362 23.1927 14.6617 23.2358 14.5703C23.279 14.4789 23.2909 14.3759 23.2696 14.2771V9.12228L24.9373 10.0411V14.3598C24.9347 14.3904 24.9347 14.4211 24.9373 14.4517C24.9282 15.1733 24.7151 15.8775 24.3225 16.4831C23.9299 17.0886 23.374 17.5706 22.7189 17.8734C22.0639 18.1761 21.3365 18.2873 20.6209 18.194C19.9053 18.1007 19.2308 17.8067 18.6753 17.3461C18.7659 17.2898 18.8342 17.2037 18.8682 17.1026Z" fill="black"/>
</g>
<defs>
<clipPath id="clip0_343_3386">
<rect width="103" height="21" fill="white"/>
</clipPath>
</defs>
</svg>
