<svg width="172" height="172" viewBox="0 0 172 172" fill="none" xmlns="http://www.w3.org/2000/svg">
<g filter="url(#filter0_b_163_6257)">
<rect width="172" height="172" rx="86" fill="white"/>
<path d="M53.6834 140.956L48.3652 148.656L46.8315 147.597L48.7745 140.886C48.9571 140.263 49.0969 139.798 49.194 139.493C48.913 139.712 48.4923 140.029 47.9318 140.444L42.388 144.528L41.0172 143.581L46.3353 135.881L47.3175 136.56L42.8664 143.004L49.555 138.105L50.4742 138.74L48.1738 146.833L52.7012 140.278L53.6834 140.956Z" fill="black"/>
<path d="M41.2729 137.578C40.1786 138.68 39.0267 139.249 37.8172 139.283C36.6046 139.321 35.5302 138.875 34.5939 137.945C33.9807 137.337 33.5734 136.642 33.3719 135.86C33.1704 135.079 33.2021 134.298 33.467 133.517C33.7259 132.737 34.1851 132.014 34.8447 131.35C35.5132 130.676 36.2472 130.209 37.0467 129.947C37.8461 129.685 38.6314 129.664 39.4026 129.884C40.1708 130.107 40.8433 130.505 41.4202 131.077C42.0454 131.698 42.4543 132.403 42.6468 133.194C42.8393 133.985 42.8031 134.767 42.5382 135.542C42.2732 136.316 41.8515 136.995 41.2729 137.578ZM40.3802 136.665C41.1747 135.864 41.5868 135.02 41.6166 134.132C41.6404 133.245 41.3276 132.478 40.6782 131.834C40.0168 131.177 39.2423 130.87 38.3547 130.913C37.4642 130.952 36.5947 131.399 35.7463 132.254C35.2096 132.795 34.8341 133.357 34.6196 133.942C34.3991 134.526 34.3561 135.104 34.4906 135.675C34.6191 136.247 34.9024 136.75 35.3403 137.184C35.9625 137.802 36.7115 138.12 37.5872 138.137C38.4569 138.155 39.3879 137.664 40.3802 136.665Z" fill="black"/>
<path d="M36.645 126.215L29.0399 131.668L27.1615 129.048C26.7374 128.457 26.4501 127.979 26.2996 127.616C26.0874 127.108 26.0024 126.606 26.0446 126.11C26.0959 125.466 26.3154 124.855 26.7032 124.279C27.0851 123.701 27.6149 123.17 28.2928 122.684C28.8703 122.269 29.4305 121.97 29.9734 121.785C30.5162 121.6 31.0103 121.508 31.4555 121.508C31.8973 121.51 32.2934 121.577 32.6439 121.708C32.9884 121.838 33.3316 122.05 33.6735 122.344C34.0129 122.635 34.3475 123.011 34.6773 123.471L36.645 126.215ZM35.0259 125.852L33.8617 124.228C33.5021 123.727 33.174 123.368 32.8773 123.151C32.5781 122.931 32.283 122.797 31.992 122.749C31.5823 122.681 31.1297 122.726 30.6343 122.882C30.133 123.037 29.5952 123.321 29.0211 123.732C28.2257 124.303 27.7095 124.872 27.4726 125.44C27.2297 126.006 27.1695 126.529 27.2921 127.006C27.3818 127.351 27.6411 127.822 28.0701 128.42L29.2157 130.018L35.0259 125.852Z" fill="black"/>
<path d="M30.8771 117.795L22.5233 122.012L19.4739 115.972L20.4597 115.474L22.951 120.409L25.5096 119.117L23.1765 114.496L24.1566 114.001L26.4897 118.623L29.3332 117.187L26.744 112.059L27.7299 111.561L30.8771 117.795Z" fill="black"/>
<path d="M26.7468 109.294L17.8291 112.131L16.5713 108.177C16.3185 107.382 16.2073 106.752 16.238 106.287C16.2645 105.823 16.4412 105.403 16.7681 105.026C17.0949 104.65 17.5037 104.384 17.9944 104.227C18.627 104.026 19.2254 104.061 19.7896 104.333C20.3538 104.604 20.8309 105.149 21.2207 105.968C21.2714 105.608 21.3439 105.323 21.4383 105.115C21.645 104.669 21.9365 104.217 22.3129 103.758L24.2466 101.435L24.7188 102.919L23.2389 104.689C22.8132 105.204 22.494 105.618 22.281 105.932C22.0681 106.245 21.9333 106.509 21.8765 106.724C21.8184 106.934 21.7961 107.138 21.8095 107.334C21.8237 107.477 21.8792 107.701 21.976 108.005L22.4114 109.374L26.3714 108.114L26.7468 109.294ZM21.3894 109.699L20.5825 107.162C20.4109 106.623 20.222 106.218 20.0157 105.949C19.8054 105.681 19.5534 105.507 19.2598 105.426C18.9621 105.346 18.6693 105.352 18.3814 105.444C17.9596 105.578 17.6619 105.843 17.4883 106.237C17.3133 106.628 17.331 107.154 17.5413 107.815L18.4392 110.637L21.3894 109.699Z" fill="black"/>
<path d="M23.8482 99.5916L14.6017 101.032L14.4062 99.777L20.9092 93.7893L13.6495 94.9204L13.4667 93.7472L22.7132 92.3066L22.9088 93.5618L16.3994 99.5504L23.6654 98.4184L23.8482 99.5916Z" fill="black"/>
<path d="M22.3795 86.9606L13.2318 82.8607L13.3047 81.5286L22.8581 78.2157L22.781 79.6243L19.8914 80.5594L19.6775 84.4665L22.4513 85.6476L22.3795 86.9606ZM18.69 84.0545L18.8634 80.8867L16.2222 81.7203C15.4198 81.9747 14.7618 82.1603 14.2483 82.2771C14.8409 82.4289 15.4266 82.6293 16.0054 82.8783L18.69 84.0545Z" fill="black"/>
<path d="M23.1098 76.4935L13.9687 74.4901L14.857 70.4371C15.0356 69.6223 15.2545 69.0212 15.5137 68.6336C15.7687 68.2451 16.1319 67.9697 16.6031 67.8072C17.0744 67.6447 17.5615 67.6186 18.0645 67.7289C18.713 67.871 19.2136 68.2007 19.5664 68.7181C19.9192 69.2354 20.0597 69.9458 19.988 70.8493C20.212 70.563 20.417 70.353 20.6031 70.2196C21.0048 69.9373 21.4834 69.6915 22.039 69.4822L24.8754 68.4374L24.542 69.9588L22.3751 70.7517C21.7489 70.9848 21.2653 71.1837 20.9242 71.3486C20.5831 71.5134 20.3343 71.6746 20.1778 71.832C20.0223 71.9852 19.9011 72.1503 19.8144 72.3274C19.7552 72.4582 19.6915 72.6795 19.6231 72.9912L19.3157 74.3942L23.3749 75.2838L23.1098 76.4935ZM18.2681 74.1646L18.838 71.5645C18.9592 71.0116 18.9978 70.567 18.9539 70.2306C18.9058 69.8933 18.7749 69.6163 18.561 69.3995C18.3429 69.1818 18.0863 69.0406 17.7912 68.9759C17.3589 68.8812 16.9688 68.9613 16.6211 69.2161C16.2742 69.4669 16.0266 69.931 15.8781 70.6086L15.244 73.5018L18.2681 74.1646Z" fill="black"/>
<path d="M24.8194 59.2012L25.5601 58.1607C26.4138 58.7716 26.9677 59.4896 27.2219 60.3146C27.4737 61.1342 27.4228 61.998 27.0692 62.9062C26.7033 63.846 26.215 64.5373 25.6043 64.98C24.9911 65.4171 24.2615 65.6491 23.4153 65.6759C22.5707 65.6987 21.7321 65.5481 20.8993 65.2238C19.9911 64.8703 19.2671 64.3898 18.7273 63.7823C18.185 63.1694 17.8637 62.4757 17.7633 61.7014C17.6604 60.9215 17.7588 60.1469 18.0583 59.3776C18.3979 58.5052 18.9056 57.858 19.5813 57.436C20.2571 57.0141 21.043 56.8428 21.9391 56.9223L21.7645 58.1626C21.0512 58.1179 20.475 58.2315 20.0357 58.5034C19.5965 58.7754 19.2634 59.2029 19.0364 59.7858C18.7755 60.456 18.7177 61.0797 18.8629 61.6568C19.0097 62.23 19.3192 62.7135 19.7915 63.1075C20.2598 63.4999 20.7815 63.808 21.3565 64.0318C22.0981 64.3205 22.7881 64.4659 23.4267 64.4679C24.0628 64.4644 24.6065 64.2878 25.0577 63.9383C25.5088 63.5888 25.8379 63.1483 26.0447 62.6169C26.2964 61.9705 26.323 61.3507 26.1247 60.7575C25.9264 60.1642 25.4913 59.6455 24.8194 59.2012Z" fill="black"/>
<path d="M29.3772 57.1612L21.3083 52.4214L21.9355 51.3536L25.2489 53.3L27.7126 49.1059L24.3992 47.1596L25.0264 46.0918L33.0953 50.8316L32.468 51.8993L28.6648 49.6652L26.2011 53.8593L30.0044 56.0934L29.3772 57.1612Z" fill="black"/>
<path d="M34.8796 48.4659L27.4009 42.8408L28.1453 41.8511L35.624 47.4762L34.8796 48.4659Z" fill="black"/>
<path d="M38.9808 43.4548L32.921 37.851L30.8277 40.1147L30.0169 39.3649L35.0529 33.919L35.8637 34.6688L33.7617 36.9418L39.8216 42.5456L38.9808 43.4548Z" fill="black"/>
<path d="M43.3989 38.912L37.5093 31.6397L42.7676 27.3813L43.4626 28.2395L39.1667 31.7186L40.9705 33.9459L44.9936 30.6878L45.6846 31.541L41.6615 34.7991L43.6662 37.2745L48.1308 33.6588L48.8258 34.517L43.3989 38.912Z" fill="black"/>
<path d="M54.9577 26.8971L56.185 26.5433C56.4733 27.5526 56.4603 28.4593 56.146 29.2634C55.8333 30.0617 55.256 30.7064 54.4142 31.1974C53.5431 31.7057 52.7307 31.9431 51.9772 31.9097C51.2251 31.8705 50.5096 31.5982 49.8304 31.0928C49.155 30.5852 48.5921 29.9455 48.1418 29.1736C47.6507 28.3318 47.3828 27.5052 47.3381 26.6937C47.2949 25.8765 47.4748 25.1335 47.8779 24.4648C48.2826 23.7902 48.8414 23.245 49.5546 22.829C50.3632 22.3572 51.1633 22.1663 51.9549 22.2564C52.7464 22.3464 53.4683 22.7013 54.1205 23.321L53.2121 24.1834C52.6815 23.7047 52.1597 23.4351 51.6466 23.3748C51.1335 23.3144 50.6068 23.4419 50.0664 23.7571C49.4452 24.1195 49.0119 24.5718 48.7666 25.114C48.5249 25.654 48.4664 26.2252 48.5911 26.8274C48.7136 27.426 48.9304 27.9917 49.2413 28.5247C49.6423 29.2121 50.0921 29.7552 50.5909 30.154C51.0911 30.547 51.6265 30.7471 52.1972 30.7541C52.7679 30.7611 53.2995 30.621 53.7921 30.3336C54.3912 29.9841 54.7977 29.5154 55.0115 28.9276C55.2253 28.3397 55.2074 27.6629 54.9577 26.8971Z" fill="black"/>
<path d="M61.9395 27.3165L58.8774 19.6518L56.0143 20.7957L55.6046 19.7702L62.4927 17.0183L62.9024 18.0438L60.0274 19.1924L63.0895 26.857L61.9395 27.3165Z" fill="black"/>
<path d="M71.7089 14.5919L72.9144 14.3084L74.1523 19.5715C74.3676 20.487 74.435 21.2384 74.3545 21.8256C74.2741 22.4129 74.0025 22.9401 73.5397 23.4075C73.0801 23.8697 72.4112 24.2041 71.5329 24.4106C70.6796 24.6113 69.947 24.6284 69.3351 24.462C68.7233 24.2955 68.2361 23.962 67.8735 23.4614C67.51 22.9567 67.2147 22.2218 66.9877 21.2566L65.7498 15.9935L66.9553 15.71L68.1917 20.9668C68.3778 21.7581 68.5877 22.3251 68.8214 22.668C69.0582 23.0057 69.3786 23.2342 69.7826 23.3534C70.1907 23.4716 70.6537 23.4698 71.1715 23.348C72.058 23.1395 72.6425 22.79 72.925 22.2996C73.2075 21.8091 73.2142 20.9921 72.9453 19.8488L71.7089 14.5919Z" fill="black"/>
<path d="M77.8619 22.9663L77.2692 13.6271L81.41 13.3642C82.2425 13.3114 82.8807 13.3562 83.3246 13.4986C83.7683 13.6367 84.1332 13.9099 84.4192 14.3182C84.7053 14.7264 84.8646 15.1875 84.8972 15.7014C84.9392 16.3639 84.7602 16.936 84.3601 17.4177C83.96 17.8994 83.3158 18.2302 82.4275 18.4102C82.7645 18.5466 83.0228 18.6859 83.2024 18.828C83.5844 19.1363 83.9525 19.5287 84.3069 20.0051L86.0927 22.4439L84.5383 22.5425L83.1791 20.678C82.7825 20.1403 82.458 19.7302 82.2055 19.4477C81.953 19.1653 81.7296 18.9705 81.5352 18.8634C81.345 18.7561 81.1529 18.6852 80.9588 18.6506C80.8168 18.6297 80.5865 18.6294 80.268 18.6496L78.8346 18.7406L79.0978 22.8878L77.8619 22.9663ZM78.7667 17.6704L81.4232 17.5018C81.988 17.4659 82.4261 17.3805 82.7373 17.2457C83.0483 17.1065 83.2785 16.9043 83.428 16.639C83.5772 16.3694 83.6422 16.0838 83.6231 15.7823C83.5951 15.3406 83.4106 14.9877 83.0698 14.7236C82.7332 14.4593 82.2188 14.3491 81.5265 14.393L78.5706 14.5807L78.7667 17.6704Z" fill="black"/>
<path d="M88.0373 22.5114L88.833 13.1873L95.5749 13.7626L95.481 14.863L89.973 14.3929L89.7293 17.2486L94.8875 17.6889L94.7941 18.7828L89.6359 18.3426L89.3651 21.5164L95.0893 22.0049L94.9954 23.1052L88.0373 22.5114Z" fill="black"/>
<path d="M106.832 21.2066C106.979 20.7844 107.252 20.4762 107.653 20.2819C108.058 20.089 108.469 20.065 108.887 20.2101C109.309 20.3565 109.618 20.6301 109.812 21.0308C110.01 21.433 110.036 21.8451 109.89 22.2673C109.743 22.6894 109.467 22.999 109.061 23.1959C108.66 23.3902 108.249 23.4141 107.827 23.2677C107.408 23.1227 107.1 22.8491 106.902 22.447C106.709 22.0422 106.686 21.6288 106.832 21.2066Z" fill="black"/>
<path d="M118.239 31.1501L123.531 23.4323L125.068 24.4864L123.148 31.2037C122.967 31.8281 122.829 32.2931 122.733 32.5988C123.013 32.3782 123.433 32.0596 123.992 31.6432L129.522 27.5404L130.896 28.4826L125.604 36.2005L124.619 35.5254L129.049 29.0658L122.376 33.9876L121.455 33.3558L123.728 25.255L119.223 31.8252L118.239 31.1501Z" fill="black"/>
<path d="M130.66 34.487C131.751 33.3809 132.901 32.8085 134.11 32.7699C135.323 32.7282 136.399 33.1705 137.338 34.0967C137.953 34.7032 138.363 35.397 138.567 36.1779C138.771 36.9589 138.742 37.74 138.48 38.5212C138.224 39.3024 137.767 40.0264 137.109 40.693C136.443 41.3688 135.711 41.8389 134.912 42.1033C134.114 42.3678 133.328 42.3914 132.556 42.1742C131.788 41.9539 131.114 41.5585 130.535 40.9878C129.908 40.3693 129.496 39.6651 129.301 38.875C129.106 38.085 129.14 37.3023 129.402 36.5271C129.664 35.7519 130.084 35.0718 130.66 34.487ZM131.556 35.3969C130.764 36.2 130.355 37.0455 130.328 37.9334C130.307 38.8212 130.623 39.5864 131.274 40.2287C131.938 40.8831 132.713 41.1875 133.601 41.1421C134.491 41.0997 135.359 40.6497 136.205 39.7921C136.74 39.2497 137.113 38.6858 137.326 38.1006C137.544 37.5152 137.585 36.9372 137.449 36.3664C137.319 35.7955 137.034 35.2935 136.594 34.8603C135.97 34.2448 135.22 33.9296 134.344 33.9147C133.474 33.8998 132.545 34.3939 131.556 35.3969Z" fill="black"/>
<path d="M135.329 45.8344L142.915 40.3558L144.803 42.9693C145.229 43.5592 145.517 44.0356 145.669 44.3985C145.883 44.9054 145.97 45.4071 145.929 45.9035C145.88 46.5479 145.663 47.159 145.277 47.7368C144.897 48.3156 144.369 48.8491 143.693 49.3374C143.117 49.7535 142.557 50.0549 142.015 50.2418C141.473 50.4286 140.979 50.5227 140.534 50.524C140.092 50.5228 139.696 50.4573 139.345 50.3276C139 50.1987 138.656 49.9878 138.313 49.6947C137.973 49.4051 137.637 49.0309 137.306 48.572L135.329 45.8344ZM136.949 46.1918L138.119 47.8116C138.48 48.3119 138.809 48.6698 139.107 48.8855C139.407 49.1046 139.702 49.2376 139.993 49.2846C140.403 49.3507 140.856 49.3049 141.351 49.147C141.851 48.99 142.388 48.7048 142.961 48.2912C143.754 47.7182 144.269 47.1474 144.504 46.5787C144.745 46.011 144.803 45.4886 144.679 45.0113C144.588 44.6675 144.327 44.1971 143.896 43.6003L142.745 42.0063L136.949 46.1918Z" fill="black"/>
<path d="M141.123 54.2328L149.462 49.9868L152.533 56.0166L151.548 56.5177L149.04 51.5915L146.486 52.8919L148.835 57.5053L147.857 58.0034L145.508 53.39L142.669 54.8353L145.276 59.9549L144.292 60.456L141.123 54.2328Z" fill="black"/>
<path d="M145.279 62.7172L154.187 59.8492L155.458 63.7988C155.714 64.5927 155.827 65.2224 155.798 65.6877C155.773 66.1518 155.598 66.5726 155.273 66.9501C154.947 67.3276 154.539 67.5953 154.049 67.7531C153.417 67.9565 152.819 67.9235 152.254 67.6539C151.688 67.3843 151.209 66.8411 150.817 66.0242C150.767 66.3843 150.696 66.6689 150.602 66.8779C150.397 67.3239 150.107 67.7772 149.732 68.2376L147.807 70.5676L147.329 69.0851L148.803 67.3096C149.227 66.7931 149.545 66.3778 149.757 66.0638C149.968 65.7497 150.102 65.4852 150.158 65.2705C150.216 65.0598 150.237 64.8561 150.223 64.6595C150.208 64.5167 150.152 64.2934 150.054 63.9896L149.614 62.6224L145.659 63.896L145.279 62.7172ZM150.635 62.2938L151.451 64.8275C151.624 65.3663 151.815 65.77 152.022 66.0386C152.233 66.3059 152.486 66.4794 152.78 66.5591C153.078 66.6375 153.37 66.6304 153.658 66.5378C154.079 66.4022 154.376 66.1368 154.548 65.7415C154.722 65.3503 154.702 64.8246 154.49 64.1643L153.582 61.3449L150.635 62.2938Z" fill="black"/>
<path d="M148.215 72.4295L157.457 70.9598L157.657 72.2144L151.173 78.2224L158.429 77.0686L158.615 78.2411L149.373 79.7108L149.174 78.4563L155.664 72.4472L148.402 73.6021L148.215 72.4295Z" fill="black"/>
<path d="M149.726 85.0269L158.888 89.0942L158.82 90.4265L149.278 93.7734L149.35 92.3646L152.237 91.4192L152.436 87.5113L149.658 86.3402L149.726 85.0269ZM153.425 87.9199L153.263 91.0883L155.902 90.2453C156.703 89.988 157.36 89.8001 157.873 89.6814C157.28 89.5318 156.694 89.3335 156.114 89.0865L153.425 87.9199Z" fill="black"/>
<path d="M149.026 95.5263L158.173 97.5011L157.298 101.557C157.122 102.372 156.905 102.974 156.647 103.362C156.393 103.752 156.031 104.028 155.56 104.192C155.089 104.356 154.602 104.384 154.099 104.275C153.45 104.135 152.948 103.807 152.594 103.291C152.239 102.774 152.097 102.064 152.165 101.161C151.942 101.448 151.738 101.658 151.552 101.792C151.152 102.076 150.674 102.323 150.119 102.534L147.286 103.588L147.614 102.065L149.779 101.266C150.404 101.031 150.887 100.83 151.228 100.664C151.568 100.498 151.817 100.337 151.973 100.179C152.128 100.025 152.248 99.8594 152.334 99.6821C152.393 99.5511 152.456 99.3296 152.524 99.0176L152.827 97.6137L148.765 96.7368L149.026 95.5263ZM153.875 97.84L153.313 100.442C153.194 100.995 153.157 101.44 153.201 101.776C153.251 102.113 153.382 102.39 153.597 102.606C153.816 102.823 154.073 102.963 154.368 103.027C154.801 103.121 155.19 103.039 155.537 102.783C155.883 102.532 156.13 102.067 156.276 101.389L156.901 98.4934L153.875 97.84Z" fill="black"/>
<path d="M147.367 112.827L146.629 113.87C145.774 113.262 145.218 112.546 144.961 111.721C144.707 110.903 144.755 110.039 145.106 109.129C145.469 108.188 145.955 107.496 146.564 107.051C147.176 106.612 147.905 106.378 148.751 106.349C149.595 106.323 150.435 106.471 151.268 106.793C152.178 107.144 152.903 107.622 153.445 108.228C153.989 108.839 154.312 109.532 154.415 110.306C154.52 111.085 154.424 111.86 154.127 112.63C153.79 113.504 153.285 114.153 152.61 114.577C151.936 115.001 151.15 115.174 150.254 115.098L150.425 113.857C151.138 113.899 151.714 113.784 152.153 113.511C152.591 113.237 152.923 112.809 153.148 112.225C153.407 111.554 153.463 110.93 153.316 110.354C153.167 109.781 152.856 109.298 152.383 108.906C151.913 108.515 151.391 108.208 150.815 107.986C150.072 107.7 149.382 107.557 148.743 107.557C148.107 107.562 147.564 107.74 147.114 108.091C146.664 108.442 146.336 108.884 146.131 109.416C145.881 110.063 145.857 110.683 146.057 111.275C146.257 111.868 146.694 112.385 147.367 112.827Z" fill="black"/>
<path d="M142.832 114.862L150.917 119.575L150.293 120.644L146.973 118.709L144.524 122.912L147.844 124.847L147.22 125.917L139.135 121.204L139.759 120.135L143.57 122.356L146.019 118.153L142.208 115.932L142.832 114.862Z" fill="black"/>
<path d="M137.355 123.576L144.853 129.176L144.112 130.168L136.614 124.568L137.355 123.576Z" fill="black"/>
<path d="M133.27 128.601L139.348 134.184L141.434 131.914L142.247 132.661L137.23 138.124L136.416 137.377L138.511 135.096L132.432 129.513L133.27 128.601Z" fill="black"/>
<path d="M128.869 133.159L134.783 140.411L129.539 144.687L128.841 143.831L133.125 140.338L131.314 138.117L127.302 141.388L126.608 140.537L130.62 137.266L128.607 134.797L124.155 138.428L123.457 137.572L128.869 133.159Z" fill="black"/>
<path d="M117.35 145.212L116.124 145.57C115.832 144.562 115.842 143.655 116.154 142.85C116.464 142.05 117.039 141.404 117.879 140.91C118.749 140.399 119.56 140.158 120.314 140.189C121.066 140.226 121.782 140.496 122.463 140.999C123.14 141.504 123.705 142.142 124.158 142.912C124.652 143.752 124.923 144.578 124.971 145.389C125.016 146.207 124.839 146.95 124.438 147.62C124.036 148.296 123.479 148.843 122.767 149.262C121.96 149.736 121.161 149.93 120.369 149.842C119.577 149.755 118.854 149.403 118.2 148.785L119.105 147.92C119.637 148.397 120.16 148.664 120.673 148.723C121.187 148.782 121.713 148.652 122.252 148.335C122.872 147.971 123.304 147.517 123.547 146.974C123.787 146.433 123.844 145.862 123.717 145.26C123.592 144.662 123.374 144.097 123.061 143.565C122.658 142.879 122.206 142.337 121.706 141.94C121.204 141.549 120.668 141.351 120.098 141.346C119.527 141.341 118.996 141.483 118.504 141.772C117.906 142.123 117.501 142.593 117.29 143.182C117.078 143.77 117.098 144.447 117.35 145.212Z" fill="black"/>
<path d="M110.347 144.824L113.432 152.479L116.292 151.327L116.705 152.351L109.825 155.124L109.412 154.1L112.284 152.942L109.198 145.287L110.347 144.824Z" fill="black"/>
<path d="M100.624 157.579L99.4196 157.867L98.1653 152.607C97.9471 151.693 97.8773 150.941 97.9559 150.354C98.0346 149.766 98.3045 149.238 98.7659 148.77C99.224 148.306 99.8919 147.969 100.769 147.76C101.622 147.557 102.355 147.537 102.967 147.702C103.579 147.866 104.068 148.198 104.432 148.698C104.797 149.201 105.094 149.935 105.324 150.9L106.579 156.159L105.374 156.446L104.121 151.193C103.933 150.403 103.721 149.836 103.486 149.494C103.249 149.157 102.927 148.93 102.523 148.812C102.115 148.695 101.652 148.698 101.134 148.822C100.248 149.033 99.6649 149.384 99.384 149.875C99.1031 150.367 99.0988 151.184 99.3713 152.326L100.624 157.579Z" fill="black"/>
<path d="M94.448 149.224L95.0703 158.561L90.9303 158.837C90.0981 158.892 89.4598 158.85 89.0153 158.709C88.5712 158.572 88.2055 158.3 87.9181 157.892C87.6308 157.485 87.47 157.025 87.4358 156.511C87.3917 155.848 87.5689 155.276 87.9675 154.793C88.366 154.31 89.0092 153.977 89.8969 153.794C89.5595 153.659 89.3008 153.52 89.1207 153.379C88.7377 153.072 88.3683 152.68 88.0125 152.205L86.219 149.772L87.7731 149.669L89.1382 151.529C89.5365 152.065 89.8623 152.474 90.1156 152.756C90.369 153.038 90.593 153.232 90.7878 153.338C90.9783 153.445 91.1706 153.515 91.3648 153.549C91.5069 153.57 91.7372 153.569 92.0557 153.548L93.4887 153.452L93.2124 149.306L94.448 149.224ZM93.5601 154.522L90.9041 154.699C90.3394 154.737 89.9016 154.824 89.5908 154.96C89.2802 155.1 89.0506 155.303 88.902 155.569C88.7537 155.839 88.6896 156.124 88.7096 156.426C88.7391 156.867 88.9246 157.22 89.2663 157.483C89.6037 157.746 90.1185 157.855 90.8106 157.808L93.7659 157.611L93.5601 154.522Z" fill="black"/>
<path d="M84.2968 149.711L83.5342 159.038L76.7904 158.486L76.8804 157.386L82.39 157.836L82.6235 154.979L77.4638 154.558L77.5533 153.463L82.713 153.885L82.9726 150.711L77.2467 150.242L77.3366 149.142L84.2968 149.711Z" fill="black"/>
<path d="M65.4982 151.08C65.3532 151.503 65.0807 151.812 64.6806 152.008C64.2766 152.202 63.8652 152.227 63.4466 152.084C63.0239 151.939 62.7147 151.666 62.519 151.266C62.3193 150.865 62.2919 150.453 62.4369 150.03C62.5819 149.607 62.8571 149.297 63.2625 149.099C63.6626 148.903 64.0739 148.878 64.4966 149.022C64.9152 149.166 65.2244 149.439 65.4241 149.84C65.6185 150.244 65.6432 150.657 65.4982 151.08Z" fill="black"/>
</g>
<defs>
<filter id="filter0_b_163_6257" x="-12.8" y="-12.8" width="197.6" height="197.6" filterUnits="userSpaceOnUse" color-interpolation-filters="sRGB">
<feFlood flood-opacity="0" result="BackgroundImageFix"/>
<feGaussianBlur in="BackgroundImageFix" stdDeviation="6.4"/>
<feComposite in2="SourceAlpha" operator="in" result="effect1_backgroundBlur_163_6257"/>
<feBlend mode="normal" in="SourceGraphic" in2="effect1_backgroundBlur_163_6257" result="shape"/>
</filter>
</defs>
</svg>
