<svg width="179" height="53" viewBox="0 0 179 53" fill="none" xmlns="http://www.w3.org/2000/svg">
<g clip-path="url(#clip0_385_1730)">
<path d="M172.511 53H6.26593C2.81165 53 0 50.1804 0 46.7288V6.26195C0 2.809 2.81165 0 6.26593 0H172.511C175.964 0 178.875 2.809 178.875 6.26195V46.7288C178.875 50.1804 175.964 53 172.511 53Z" fill="#A6A6A6"/>
<path d="M177.593 46.7305C177.593 49.5342 175.322 51.8053 172.513 51.8053H6.26636C3.45869 51.8053 1.17969 49.5342 1.17969 46.7305V6.26106C1.17969 3.45869 3.45869 1.17969 6.26636 1.17969H172.511C175.322 1.17969 177.592 3.45869 177.592 6.26106L177.593 46.7305Z" fill="black"/>
<path d="M39.9195 26.2151C39.8811 21.9446 43.4162 19.867 43.5779 19.7703C41.5758 16.8513 38.4726 16.4525 37.3822 16.4207C34.7759 16.1464 32.2478 17.9802 30.9201 17.9802C29.566 17.9802 27.5215 16.4472 25.318 16.4922C22.4825 16.536 19.8299 18.1776 18.375 20.7269C15.3726 25.9249 17.6118 33.5635 20.4884 37.7651C21.9274 39.8228 23.6088 42.1204 25.8096 42.0396C27.9627 41.9508 28.767 40.6669 31.3653 40.6669C33.9398 40.6669 34.6951 42.0396 36.9396 41.9879C39.2504 41.9508 40.7053 39.9209 42.0939 37.8446C43.7567 35.4861 44.4245 33.1634 44.451 33.0441C44.3967 33.0256 39.9633 31.3336 39.9195 26.2151Z" fill="white"/>
<path d="M35.6808 13.6562C36.8388 12.208 37.6312 10.2377 37.4112 8.23828C35.7351 8.31248 33.639 9.39766 32.4319 10.8141C31.3639 12.0622 30.4099 14.108 30.6564 16.0319C32.5392 16.1724 34.4724 15.0819 35.6808 13.6562Z" fill="white"/>
<path d="M71.0817 41.7426H68.0726L66.4243 36.5631H60.695L59.1249 41.7426H56.1953L61.8716 24.1095H65.3776L71.0817 41.7426ZM65.9274 34.3901L64.4368 29.7858C64.2791 29.3154 63.9837 28.2077 63.5477 26.464H63.4947C63.3212 27.2139 63.0416 28.3216 62.6573 29.7858L61.1932 34.3901H65.9274Z" fill="white"/>
<path d="M85.6818 35.2316C85.6818 37.394 85.0975 39.1033 83.9288 40.3581C82.8821 41.475 81.5823 42.0329 80.0307 42.0329C78.3559 42.0329 77.1528 41.4313 76.4201 40.2282H76.3671V46.9261H73.5422V33.2163C73.5422 31.8569 73.5064 30.4616 73.4375 29.0306H75.9219L76.0795 31.046H76.1326C77.0746 29.5275 78.5043 28.7696 80.4229 28.7696C81.9228 28.7696 83.1749 29.3619 84.1766 30.5478C85.181 31.735 85.6818 33.2958 85.6818 35.2316ZM82.8039 35.335C82.8039 34.0974 82.5257 33.0772 81.9665 32.2742C81.3557 31.4368 80.5355 31.0181 79.5073 31.0181C78.8104 31.0181 78.177 31.2513 77.6112 31.7111C77.0441 32.1749 76.6731 32.7804 76.4996 33.5303C76.4121 33.8801 76.3684 34.1663 76.3684 34.3916V36.5116C76.3684 37.4364 76.652 38.2169 77.2191 38.8542C77.7862 39.4915 78.5228 39.8095 79.4291 39.8095C80.4931 39.8095 81.3212 39.3988 81.9135 38.5799C82.5071 37.7597 82.8039 36.6785 82.8039 35.335Z" fill="white"/>
<path d="M100.305 35.2316C100.305 37.394 99.7212 39.1033 98.5512 40.3581C97.5058 41.475 96.2059 42.0329 94.6544 42.0329C92.9796 42.0329 91.7765 41.4313 91.0451 40.2282H90.9921V46.9261H88.1672V33.2163C88.1672 31.8569 88.1314 30.4616 88.0625 29.0306H90.5469L90.7046 31.046H90.7575C91.6983 29.5275 93.128 28.7696 95.0479 28.7696C96.5465 28.7696 97.7986 29.3619 98.803 30.5478C99.8033 31.735 100.305 33.2958 100.305 35.2316ZM97.4276 35.335C97.4276 34.0974 97.148 33.0772 96.5889 32.2742C95.978 31.4368 95.1605 31.0181 94.131 31.0181C93.4327 31.0181 92.8007 31.2513 92.2336 31.7111C91.6665 32.1749 91.2968 32.7804 91.1232 33.5303C91.0371 33.8801 90.9921 34.1663 90.9921 34.3916V36.5116C90.9921 37.4364 91.2756 38.2169 91.8401 38.8542C92.4072 39.4902 93.1439 39.8095 94.0528 39.8095C95.1168 39.8095 95.9449 39.3988 96.5372 38.5799C97.1308 37.7597 97.4276 36.6785 97.4276 35.335Z" fill="white"/>
<path d="M116.654 36.7982C116.654 38.2981 116.133 39.5185 115.088 40.4605C113.939 41.4901 112.34 42.0042 110.285 42.0042C108.387 42.0042 106.866 41.6385 105.715 40.9057L106.369 38.5512C107.61 39.3012 108.97 39.6775 110.453 39.6775C111.517 39.6775 112.345 39.4363 112.94 38.9567C113.532 38.477 113.828 37.8331 113.828 37.0301C113.828 36.3146 113.584 35.7117 113.095 35.2228C112.609 34.7339 111.797 34.2794 110.662 33.8594C107.575 32.708 106.033 31.0212 106.033 28.8032C106.033 27.3536 106.573 26.1651 107.656 25.2403C108.735 24.3141 110.173 23.8517 111.973 23.8517C113.577 23.8517 114.91 24.1312 115.974 24.6891L115.268 26.9919C114.274 26.4513 113.151 26.181 111.893 26.181C110.9 26.181 110.123 26.4261 109.567 26.9137C109.096 27.3497 108.86 27.881 108.86 28.5104C108.86 29.2073 109.129 29.7837 109.67 30.2368C110.14 30.6555 110.995 31.1087 112.235 31.5976C113.752 32.2084 114.867 32.9226 115.583 33.7415C116.298 34.5577 116.654 35.5792 116.654 36.7982Z" fill="white"/>
<path d="M125.993 31.1475H122.88V37.3207C122.88 38.8908 123.428 39.6752 124.528 39.6752C125.033 39.6752 125.451 39.6315 125.783 39.5441L125.861 41.6892C125.304 41.8973 124.572 42.0019 123.664 42.0019C122.548 42.0019 121.676 41.6614 121.047 40.9817C120.42 40.3006 120.105 39.1585 120.105 37.5539V31.1449H118.25V29.0249H120.105V26.6969L122.88 25.8595V29.0249H125.993V31.1475Z" fill="white"/>
<path d="M140.044 35.282C140.044 37.2364 139.484 38.8409 138.369 40.0957C137.199 41.3876 135.646 42.0315 133.71 42.0315C131.844 42.0315 130.359 41.4128 129.251 40.1752C128.144 38.9377 127.59 37.3755 127.59 35.4927C127.59 33.5224 128.16 31.9085 129.303 30.6538C130.444 29.3977 131.984 28.7696 133.919 28.7696C135.785 28.7696 137.286 29.3884 138.419 30.6273C139.503 31.829 140.044 33.3806 140.044 35.282ZM137.113 35.3734C137.113 34.2008 136.862 33.1951 136.355 32.3564C135.762 31.3414 134.916 30.8353 133.819 30.8353C132.683 30.8353 131.821 31.3428 131.228 32.3564C130.721 33.1964 130.47 34.218 130.47 35.4264C130.47 36.599 130.721 37.6047 131.228 38.4421C131.839 39.4571 132.692 39.9632 133.793 39.9632C134.872 39.9632 135.719 39.4465 136.33 38.4156C136.85 37.561 137.113 36.5447 137.113 35.3734Z" fill="white"/>
<path d="M149.224 31.515C148.945 31.4633 148.647 31.4368 148.334 31.4368C147.34 31.4368 146.572 31.8118 146.031 32.5631C145.561 33.2256 145.325 34.063 145.325 35.074V41.7453H142.501L142.528 33.0348C142.528 31.5693 142.492 30.2351 142.422 29.032H144.882L144.986 31.4647H145.064C145.362 30.6286 145.832 29.9555 146.476 29.4507C147.106 28.9962 147.785 28.7696 148.518 28.7696C148.779 28.7696 149.015 28.7882 149.224 28.8213V31.515Z" fill="white"/>
<path d="M161.862 34.783C161.862 35.2891 161.829 35.7158 161.759 36.0642H153.284C153.317 37.3203 153.727 38.281 154.514 38.9435C155.228 39.5357 156.151 39.8325 157.286 39.8325C158.54 39.8325 159.685 39.6325 160.715 39.231L161.157 41.192C159.954 41.7167 158.534 41.9777 156.895 41.9777C154.923 41.9777 153.375 41.3974 152.249 40.238C151.126 39.0786 150.562 37.5217 150.562 35.5687C150.562 33.6514 151.086 32.0548 152.134 30.7815C153.231 29.422 154.714 28.7423 156.579 28.7423C158.412 28.7423 159.799 29.422 160.741 30.7815C161.487 31.8613 161.862 33.1969 161.862 34.783ZM159.168 34.0502C159.187 33.2128 159.003 32.4894 158.62 31.8786C158.131 31.0928 157.38 30.7006 156.369 30.7006C155.445 30.7006 154.694 31.0836 154.12 31.8521C153.65 32.4629 153.37 33.1956 153.284 34.0489L159.168 34.0502Z" fill="white"/>
<path d="M64.9877 13.2616C64.9877 14.8212 64.52 15.9951 63.5859 16.7835C62.7207 17.5109 61.4911 17.8753 59.8984 17.8753C59.1087 17.8753 58.433 17.8408 57.8672 17.7719V9.25086C58.6052 9.13161 59.4002 9.07066 60.2588 9.07066C61.7759 9.07066 62.9194 9.40059 63.6906 10.0604C64.5545 10.8064 64.9877 11.873 64.9877 13.2616ZM63.5236 13.3001C63.5236 12.2891 63.256 11.514 62.7207 10.9734C62.1854 10.4341 61.4036 10.1638 60.3741 10.1638C59.9368 10.1638 59.5645 10.1929 59.2558 10.2539V16.7318C59.4267 16.7583 59.7394 16.7702 60.1939 16.7702C61.2565 16.7702 62.0767 16.4748 62.6544 15.8838C63.2321 15.2929 63.5236 14.4316 63.5236 13.3001Z" fill="white"/>
<path d="M72.7503 14.6245C72.7503 15.5851 72.4761 16.3722 71.9275 16.9896C71.3525 17.6243 70.5906 17.941 69.6392 17.941C68.7223 17.941 67.9923 17.6375 67.4477 17.028C66.9044 16.4199 66.6328 15.6527 66.6328 14.7278C66.6328 13.7606 66.9124 12.9669 67.4742 12.3508C68.036 11.7347 68.7912 11.4259 69.7426 11.4259C70.6595 11.4259 71.3962 11.7294 71.954 12.3375C72.484 12.9285 72.7503 13.6917 72.7503 14.6245ZM71.3101 14.6695C71.3101 14.0932 71.1855 13.5989 70.9377 13.1869C70.6462 12.6887 70.2315 12.4396 69.6922 12.4396C69.1344 12.4396 68.7104 12.6887 68.4189 13.1869C68.1698 13.5989 68.0466 14.1011 68.0466 14.6947C68.0466 15.2711 68.1711 15.7653 68.4189 16.1774C68.7197 16.6756 69.1384 16.9247 69.679 16.9247C70.209 16.9247 70.625 16.6716 70.9245 16.1641C71.1815 15.7441 71.3101 15.2459 71.3101 14.6695Z" fill="white"/>
<path d="M83.1591 11.5529L81.2047 17.7989H79.9328L79.1232 15.0867C78.9178 14.4096 78.7508 13.7365 78.621 13.0687H78.5958C78.4752 13.755 78.3083 14.4268 78.0937 15.0867L77.2337 17.7989H75.9471L74.1094 11.5529H75.5364L76.2426 14.5222C76.4135 15.2245 76.554 15.8936 76.6666 16.5269H76.6918C76.7951 16.0049 76.9661 15.3397 77.2072 14.5355L78.0937 11.5542H79.2252L80.0745 14.4719C80.2799 15.1834 80.4468 15.8684 80.5754 16.5283H80.6138C80.7079 15.8856 80.8497 15.2006 81.0378 14.4719L81.7957 11.5542H83.1591V11.5529Z" fill="white"/>
<path d="M90.3577 17.8012H88.9691V14.2237C88.9691 13.1213 88.5504 12.5701 87.7104 12.5701C87.2983 12.5701 86.9657 12.7212 86.7073 13.0246C86.4516 13.328 86.3218 13.6858 86.3218 14.0952V17.7999H84.9332V13.3399C84.9332 12.7914 84.9159 12.1965 84.8828 11.5525H86.1031L86.1681 12.529H86.2065C86.3681 12.2256 86.6093 11.9752 86.926 11.7751C87.3023 11.5419 87.7236 11.424 88.1847 11.424C88.7677 11.424 89.2527 11.6121 89.6382 11.9898C90.1179 12.4522 90.3577 13.1425 90.3577 14.0594V17.8012Z" fill="white"/>
<path d="M94.1881 17.7997H92.8008V8.68765H94.1881V17.7997Z" fill="white"/>
<path d="M102.364 14.6245C102.364 15.5851 102.089 16.3722 101.541 16.9896C100.966 17.6243 100.203 17.941 99.2525 17.941C98.3343 17.941 97.6042 17.6375 97.061 17.028C96.5177 16.4199 96.2461 15.6527 96.2461 14.7278C96.2461 13.7606 96.5257 12.9669 97.0875 12.3508C97.6493 11.7347 98.4045 11.4259 99.3545 11.4259C100.273 11.4259 101.008 11.7294 101.567 12.3375C102.097 12.9285 102.364 13.6917 102.364 14.6245ZM100.922 14.6695C100.922 14.0932 100.797 13.5989 100.55 13.1869C100.26 12.6887 99.8435 12.4396 99.3055 12.4396C98.7464 12.4396 98.3224 12.6887 98.0322 13.1869C97.7831 13.5989 97.6599 14.1011 97.6599 14.6947C97.6599 15.2711 97.7844 15.7653 98.0322 16.1774C98.333 16.6756 98.7517 16.9247 99.2923 16.9247C99.8223 16.9247 100.237 16.6716 100.536 16.1641C100.795 15.7441 100.922 15.2459 100.922 14.6695Z" fill="white"/>
<path d="M109.081 17.7992H107.834L107.731 17.0797H107.692C107.266 17.6534 106.657 17.941 105.868 17.941C105.278 17.941 104.801 17.7515 104.442 17.3752C104.116 17.0333 103.953 16.608 103.953 16.1032C103.953 15.34 104.271 14.7583 104.911 14.3555C105.55 13.9527 106.448 13.7553 107.605 13.7646V13.648C107.605 12.8251 107.173 12.4144 106.308 12.4144C105.692 12.4144 105.148 12.5694 104.679 12.8768L104.397 11.9652C104.977 11.6061 105.694 11.4259 106.54 11.4259C108.172 11.4259 108.991 12.2872 108.991 14.0097V16.3099C108.991 16.934 109.021 17.4308 109.081 17.7992ZM107.639 15.6527V14.6894C106.108 14.6629 105.342 15.0829 105.342 15.9482C105.342 16.2741 105.429 16.5179 105.608 16.6809C105.787 16.8439 106.015 16.9247 106.286 16.9247C106.591 16.9247 106.876 16.828 107.136 16.6358C107.397 16.4424 107.557 16.1973 107.617 15.8965C107.631 15.8289 107.639 15.7468 107.639 15.6527Z" fill="white"/>
<path d="M116.974 17.7997H115.742L115.677 16.7967H115.639C115.245 17.5599 114.575 17.9415 113.633 17.9415C112.88 17.9415 112.253 17.646 111.756 17.055C111.259 16.4641 111.012 15.6969 111.012 14.7548C111.012 13.7439 111.281 12.925 111.821 12.2996C112.345 11.7166 112.986 11.4251 113.749 11.4251C114.588 11.4251 115.175 11.7073 115.509 12.2731H115.535V8.68765H116.925V16.1169C116.925 16.7251 116.941 17.2856 116.974 17.7997ZM115.535 15.1656V14.1241C115.535 13.9439 115.522 13.7982 115.497 13.6869C115.419 13.353 115.25 13.0721 114.995 12.8455C114.736 12.6189 114.425 12.505 114.066 12.505C113.548 12.505 113.142 12.7104 112.844 13.1224C112.549 13.5345 112.399 14.0605 112.399 14.7032C112.399 15.3206 112.541 15.8215 112.826 16.207C113.126 16.6178 113.532 16.8232 114.039 16.8232C114.495 16.8232 114.86 16.6522 115.136 16.3091C115.404 15.9924 115.535 15.6108 115.535 15.1656Z" fill="white"/>
<path d="M128.852 14.6245C128.852 15.5851 128.578 16.3722 128.029 16.9896C127.454 17.6243 126.693 17.941 125.741 17.941C124.825 17.941 124.095 17.6375 123.549 17.028C123.006 16.4199 122.734 15.6527 122.734 14.7278C122.734 13.7606 123.014 12.9669 123.576 12.3508C124.138 11.7347 124.893 11.4259 125.845 11.4259C126.761 11.4259 127.499 11.7294 128.056 12.3375C128.586 12.9285 128.852 13.6917 128.852 14.6245ZM127.413 14.6695C127.413 14.0932 127.288 13.5989 127.041 13.1869C126.748 12.6887 126.334 12.4396 125.794 12.4396C125.237 12.4396 124.813 12.6887 124.52 13.1869C124.271 13.5989 124.148 14.1011 124.148 14.6947C124.148 15.2711 124.273 15.7653 124.52 16.1774C124.821 16.6756 125.24 16.9247 125.781 16.9247C126.311 16.9247 126.728 16.6716 127.027 16.1641C127.283 15.7441 127.413 15.2459 127.413 14.6695Z" fill="white"/>
<path d="M136.317 17.8012H134.93V14.2237C134.93 13.1213 134.511 12.5701 133.67 12.5701C133.258 12.5701 132.925 12.7212 132.668 13.0246C132.411 13.328 132.283 13.6858 132.283 14.0952V17.7999H130.893V13.3399C130.893 12.7914 130.877 12.1965 130.844 11.5525H132.063L132.128 12.529H132.166C132.329 12.2256 132.57 11.9752 132.886 11.7751C133.263 11.5419 133.683 11.424 134.146 11.424C134.727 11.424 135.212 11.6121 135.598 11.9898C136.079 12.4522 136.317 13.1425 136.317 14.0594V17.8012Z" fill="white"/>
<path d="M145.663 12.5919H144.134V15.6262C144.134 16.3973 144.406 16.7829 144.944 16.7829C145.193 16.7829 145.4 16.7617 145.563 16.718L145.599 17.7713C145.324 17.8747 144.964 17.9264 144.52 17.9264C143.971 17.9264 143.545 17.7594 143.236 17.4255C142.926 17.0916 142.772 16.5298 142.772 15.7414V12.5919H141.859V11.5518H142.772V10.407L144.133 9.99625V11.5505H145.662L145.663 12.5919Z" fill="white"/>
<path d="M153.014 17.7997H151.624V14.2487C151.624 13.1291 151.206 12.5686 150.367 12.5686C149.723 12.5686 149.283 12.8932 149.042 13.5425C149.001 13.6789 148.977 13.8459 148.977 14.042V17.7984H147.59V8.68765H148.977V12.452H149.004C149.441 11.767 150.068 11.4251 150.88 11.4251C151.455 11.4251 151.931 11.6133 152.308 11.9909C152.779 12.4613 153.014 13.1609 153.014 14.0857V17.7997Z" fill="white"/>
<path d="M160.596 14.3828C160.596 14.6319 160.577 14.8413 160.544 15.0122H156.38C156.398 15.6297 156.597 16.1 156.983 16.426C157.335 16.7175 157.79 16.8632 158.346 16.8632C158.962 16.8632 159.524 16.7652 160.03 16.5678L160.248 17.5324C159.655 17.7894 158.958 17.9179 158.151 17.9179C157.184 17.9179 156.422 17.6331 155.871 17.0633C155.317 16.4936 155.043 15.729 155.043 14.7697C155.043 13.8277 155.299 13.0433 155.814 12.4179C156.352 11.7501 157.079 11.4162 157.998 11.4162C158.896 11.4162 159.578 11.7501 160.04 12.4179C160.412 12.9479 160.596 13.6037 160.596 14.3828ZM159.271 14.0238C159.282 13.6117 159.19 13.2566 159.002 12.9571C158.761 12.5716 158.394 12.3781 157.897 12.3781C157.444 12.3781 157.074 12.5663 156.792 12.9439C156.561 13.2447 156.425 13.6037 156.38 14.0238H159.271Z" fill="white"/>
</g>
<defs>
<clipPath id="clip0_385_1730">
<rect width="178.875" height="53" fill="white"/>
</clipPath>
</defs>
</svg>
