<svg width="181" height="54" viewBox="0 0 181 54" fill="none" xmlns="http://www.w3.org/2000/svg">
<g clip-path="url(#clip0_385_1762)">
<path d="M174.205 53.334H7.54541C3.87881 53.334 0.878906 50.3341 0.878906 46.6675V6.66845C0.878906 3.00185 3.87881 0.00195312 7.54541 0.00195312H174.205C177.872 0.00195312 180.872 3.00185 180.872 6.66845V46.6675C180.872 50.3341 177.872 53.334 174.205 53.334Z" fill="#100F0D"/>
<path d="M174.205 0.00195312H7.54541C3.87881 0.00195312 0.878906 3.00185 0.878906 6.66845V46.6675C0.878906 50.3341 3.87881 53.334 7.54541 53.334H174.205C177.872 53.334 180.872 50.3341 180.872 46.6675V6.66845C180.872 3.00185 177.872 0.00195312 174.205 0.00195312ZM174.205 1.06805C177.293 1.06805 179.805 3.58055 179.805 6.66845V46.6675C179.805 49.7554 177.293 52.2679 174.205 52.2679H7.54541C4.45751 52.2679 1.94611 49.7554 1.94611 46.6675V6.66845C1.94611 3.58055 4.45751 1.06805 7.54541 1.06805H174.205Z" fill="#A2A2A1"/>
<path d="M143.454 40.0008H145.942V23.3318H143.454V40.0008ZM165.863 29.3368L163.011 36.5632H162.926L159.966 29.3368H157.286L161.726 39.4368L159.194 45.0553H161.789L168.63 29.3373L165.863 29.3368ZM151.753 38.1074C150.94 38.1074 149.803 37.6995 149.803 36.6918C149.803 35.4053 151.219 34.9121 152.44 34.9121C153.533 34.9121 154.049 35.1475 154.713 35.4694C154.52 37.0136 153.191 38.1074 151.753 38.1074ZM152.055 28.9722C150.253 28.9722 148.388 29.7659 147.616 31.5243L149.824 32.4461C150.296 31.5243 151.175 31.2243 152.097 31.2243C153.384 31.2243 154.692 31.9956 154.713 33.3685V33.5398C154.262 33.2825 153.297 32.8967 152.119 32.8967C149.737 32.8967 147.315 34.2044 147.315 36.6491C147.315 38.8793 149.267 40.3162 151.453 40.3162C153.125 40.3162 154.049 39.5656 154.626 38.6861H154.713V39.9735H157.116V33.5825C157.116 30.6232 154.905 28.9722 152.055 28.9722ZM136.679 31.3659H133.14V25.6526H136.679C138.539 25.6526 139.594 27.1922 139.594 28.5092C139.594 29.8009 138.538 31.3659 136.679 31.3659ZM136.615 23.3322H130.653V40.0012H133.14V33.6863H136.615C139.372 33.6863 142.083 31.6905 142.083 28.5098C142.083 25.3297 139.372 23.3322 136.615 23.3322ZM104.108 38.1102C102.389 38.1102 100.95 36.6706 100.95 34.6952C100.95 32.6968 102.389 31.2369 104.108 31.2369C105.804 31.2369 107.136 32.6969 107.136 34.6952C107.136 36.6706 105.804 38.1102 104.108 38.1102ZM106.964 30.2699H106.878C106.32 29.6041 105.245 29.0027 103.893 29.0027C101.057 29.0027 98.4582 31.4948 98.4582 34.6952C98.4582 37.8738 101.057 40.344 103.893 40.344C105.245 40.344 106.32 39.7424 106.878 39.0555H106.964V39.871C106.964 42.0413 105.804 43.2006 103.936 43.2006C102.411 43.2006 101.466 42.1053 101.079 41.1818L98.9099 42.0839C99.5322 43.5869 101.186 45.4349 103.936 45.4349C106.858 45.4349 109.328 43.7161 109.328 39.5272V29.3462H106.964L106.964 30.2699ZM111.046 40.0003H113.537V23.3313H111.046V40.0003ZM117.21 34.5015C117.146 32.3104 118.908 31.1937 120.175 31.1937C121.163 31.1937 122 31.6879 122.281 32.3963L117.21 34.5015ZM124.943 32.6109C124.471 31.3443 123.032 29.0027 120.089 29.0027C117.167 29.0027 114.74 31.301 114.74 34.6734C114.74 37.8525 117.146 40.3441 120.368 40.3441C122.967 40.3441 124.471 38.7551 125.094 37.8311L123.161 36.5421C122.516 37.4874 121.636 38.1103 120.368 38.1103C119.101 38.1103 118.198 37.5301 117.619 36.3917L125.201 33.2558L124.943 32.6109ZM64.5341 30.7427V33.1484H70.2906C70.1187 34.5016 69.6676 35.4895 68.9802 36.177C68.1422 37.0144 66.8319 37.9384 64.534 37.9384C60.9897 37.9384 58.219 35.0817 58.219 31.5375C58.219 27.9933 60.9897 25.1362 64.534 25.1362C66.4458 25.1362 67.8417 25.8881 68.8728 26.8548L70.5702 25.1575C69.1306 23.783 67.2192 22.7305 64.534 22.7305C59.6788 22.7305 55.5977 26.6829 55.5977 31.5375C55.5977 36.3916 59.6788 40.3441 64.534 40.3441C67.1542 40.3441 69.1307 39.4847 70.677 37.8739C72.2666 36.2843 72.7608 34.0505 72.7608 32.2459C72.7608 31.688 72.7174 31.1725 72.6316 30.7427H64.5341ZM79.3061 38.1102C77.5873 38.1102 76.1051 36.6925 76.1051 34.6734C76.1051 32.6328 77.5873 31.237 79.3061 31.237C81.0242 31.237 82.5064 32.6328 82.5064 34.6734C82.5064 36.6925 81.0242 38.1102 79.3061 38.1102ZM79.3061 29.0027C76.1691 29.0027 73.6134 31.3869 73.6134 34.6734C73.6134 37.9384 76.1691 40.3441 79.3061 40.3441C82.4419 40.3441 84.9981 37.9384 84.9981 34.6734C84.9981 31.3869 82.4419 29.0027 79.3061 29.0027ZM91.7231 38.1102C90.0055 38.1102 88.5228 36.6925 88.5228 34.6734C88.5228 32.6328 90.0056 31.237 91.7231 31.237C93.4419 31.237 94.9236 32.6328 94.9236 34.6734C94.9236 36.6925 93.4419 38.1102 91.7231 38.1102ZM91.7231 29.0027C88.5873 29.0027 86.0316 31.3869 86.0316 34.6734C86.0316 37.9384 88.5873 40.3441 91.7231 40.3441C94.8601 40.3441 97.4158 37.9384 97.4158 34.6734C97.4158 31.3869 94.8601 29.0027 91.7231 29.0027Z" fill="white"/>
<path d="M28.4987 25.8986L14.3047 40.9646C14.3052 40.9677 14.3063 40.9703 14.3068 40.9735C14.7421 42.6095 16.2364 43.8141 18.0098 43.8141C18.7187 43.8141 19.3843 43.6225 19.9551 43.286L20.0004 43.2594L35.9784 34.0394L28.4987 25.8986Z" fill="#EB3131"/>
<path d="M42.8554 23.3345L42.8418 23.3252L35.9436 19.3262L28.1719 26.2418L35.9706 34.0395L42.8324 30.0803C44.0354 29.4308 44.8521 28.1626 44.8521 26.7001C44.8521 25.2481 44.0465 23.9861 42.8554 23.3345Z" fill="#F6B60B"/>
<path d="M14.3021 12.3691C14.2167 12.6838 14.1719 13.0134 14.1719 13.3557V39.9787C14.1719 40.3203 14.2162 40.651 14.3026 40.9645L28.9866 26.2835L14.3021 12.3691Z" fill="#5778C5"/>
<path d="M28.6047 26.668L35.952 19.3229L19.992 10.0695C19.4119 9.72201 18.7348 9.52148 18.0103 9.52148C16.2369 9.52148 14.7406 10.7283 14.3052 12.3662C14.3047 12.3678 14.3047 12.3689 14.3047 12.3703L28.6047 26.668Z" fill="#3BAD49"/>
<path d="M64.066 13.0412H60.1765V14.0037H63.0911C63.0119 14.7891 62.6994 15.4058 62.1723 15.8537C61.6453 16.3017 60.9723 16.5266 60.1765 16.5266C59.3036 16.5266 58.564 16.2225 57.9579 15.6184C57.3641 15.0017 57.0621 14.2392 57.0621 13.3205C57.0621 12.4018 57.3641 11.6393 57.9579 11.0227C58.564 10.4185 59.3036 10.1164 60.1765 10.1164C60.6245 10.1164 61.0516 10.1935 61.4431 10.3623C61.8348 10.5309 62.1494 10.7664 62.3952 11.0685L63.1348 10.3289C62.7994 9.94763 62.3744 9.65603 61.8472 9.44351C61.3202 9.23098 60.7702 9.12898 60.1764 9.12898C59.0119 9.12898 58.0245 9.5331 57.2182 10.3394C56.412 11.1476 56.0078 12.1435 56.0078 13.3205C56.0078 14.4975 56.4119 15.4955 57.2182 16.3018C58.0245 17.1079 59.0119 17.5122 60.1764 17.5122C61.3993 17.5122 62.3743 17.1205 63.1243 16.3246C63.7847 15.6622 64.1222 14.7664 64.1222 13.6456C64.1222 13.456 64.0993 13.2537 64.066 13.0412ZM65.5728 9.30797V17.3329H70.258V16.3474H66.604V13.8017H69.8998V12.8392H66.604V10.2955H70.258V9.30794L65.5728 9.30797ZM76.8278 10.2955V9.30797H71.3133V10.2955H73.555V17.3328H74.5862V10.2955H76.8278ZM81.8203 9.30797H80.7891V17.3329H81.8203V9.30797ZM88.6269 10.2955V9.30797H83.1125V10.2955H85.354V17.3328H86.3852V10.2955H88.6269ZM99.0329 10.3518C98.237 9.53304 97.2621 9.12891 96.0975 9.12891C94.9309 9.12891 93.956 9.53303 93.1601 10.3393C92.3643 11.1352 91.9727 12.133 91.9727 13.3204C91.9727 14.5078 92.3643 15.5058 93.1601 16.3017C93.956 17.1078 94.9309 17.5121 96.0975 17.5121C97.2516 17.5121 98.237 17.1078 99.0329 16.3017C99.8287 15.5059 100.22 14.5079 100.22 13.3204C100.22 12.1434 99.8287 11.1475 99.0329 10.3518ZM93.8997 11.0226C94.4934 10.4185 95.2226 10.1163 96.0975 10.1163C96.9704 10.1163 97.6996 10.4185 98.2829 11.0226C98.8766 11.6163 99.1682 12.3912 99.1682 13.3204C99.1682 14.2517 98.8766 15.0245 98.2829 15.6183C97.6996 16.2224 96.9704 16.5265 96.0975 16.5265C95.2226 16.5265 94.4934 16.2224 93.8997 15.6183C93.3184 15.012 93.0268 14.2517 93.0268 13.3204C93.0268 12.3912 93.3184 11.6288 93.8997 11.0226ZM102.67 12.3351L102.627 10.7871H102.67L106.749 17.3328H107.826V9.30789H106.795V14.0036L106.839 15.5516H106.795L102.895 9.30789H101.639V17.3328H102.67V12.3351Z" fill="white" stroke="white" stroke-width="0.26666" stroke-miterlimit="10"/>
</g>
<defs>
<clipPath id="clip0_385_1762">
<rect width="180" height="53.333" fill="white" transform="translate(0.875)"/>
</clipPath>
</defs>
</svg>
