<svg width="72" height="20" viewBox="0 0 72 20" fill="none" xmlns="http://www.w3.org/2000/svg">
<g clip-path="url(#clip0_343_3365)">
<path d="M50.5616 4.16909C49.936 5.00393 49.3212 5.82465 48.7032 6.64891C48.5698 6.63286 48.4399 6.612 48.3091 6.60205C47.6165 6.54973 46.9858 6.7009 46.4682 7.19616C46.1093 7.5396 45.9134 7.97259 45.8115 8.45437C45.7527 8.73168 45.7441 9.01285 45.7441 9.29531L45.7444 16.0129H43.0547V4.1999C43.8842 4.1999 44.7086 4.1999 45.5491 4.1999C45.5491 4.58507 45.5491 4.96189 45.5491 5.37851C45.612 5.32234 45.6485 5.29249 45.6816 5.25975C46.068 4.87587 46.4958 4.55008 46.9918 4.32251C47.5762 4.05482 48.1919 3.95596 48.8299 3.96816C49.3847 3.97875 49.9325 4.05354 50.479 4.14149C50.4987 4.14469 50.5174 4.154 50.5616 4.16909ZM18.2672 0.00321259L23.5753 0.000965793V16.0289L10.3945 16.0286C8.28429 16.0286 8.51484 19.2306 5.30808 19.2306L0 19.2329V3.20489L13.1808 3.20521C15.291 3.20521 15.0605 0.00321259 18.2672 0.00321259ZM19.4276 4.1877H14.8147C12.9572 4.1877 12.7073 7.356 9.64283 7.356L4.135 7.35857L4.14802 15.0458H8.76095C10.6184 15.0458 10.8683 11.8775 13.9328 11.8775L19.4406 11.8749L19.4276 4.1877ZM41.7606 11.1852C41.8238 12.0817 41.6612 12.9325 41.2239 13.7186C40.6063 14.8288 39.6621 15.5154 38.4535 15.8444C38.0299 15.9596 37.597 16.011 37.1578 16.011H29.4988V0.000644822L37.0689 2.88103e-06C38.5942 -0.00160197 39.7654 0.667301 40.6126 1.92294C41.2004 2.79437 41.4589 3.77205 41.3811 4.82387C41.2868 6.09908 40.6828 7.08222 39.6333 7.79092C39.5659 7.8365 39.4967 7.87887 39.4078 7.93568C39.4621 7.96649 39.5027 7.99056 39.5446 8.01271C39.988 8.24734 40.3992 8.52691 40.7514 8.88928C41.3719 9.52769 41.6981 10.2974 41.7606 11.1852ZM32.1911 6.65147H36.7301C37.5332 6.64313 38.1343 6.24641 38.525 5.54605C38.9746 4.73913 38.7479 3.70304 38.1756 3.07426C37.8368 2.70193 37.4182 2.49426 36.9114 2.49362H32.1911V6.65147ZM39.0286 10.886C38.7971 9.89328 37.8974 9.16178 36.8857 9.15793H32.1918V13.5135H36.7469C36.813 13.5135 36.8797 13.5141 36.9444 13.5042C37.7148 13.389 38.3233 13.0064 38.7545 12.3529C39.0492 11.907 39.1521 11.4153 39.0286 10.886ZM60.178 12.782C59.7357 14.3102 58.756 15.3296 57.2857 15.8758C56.4838 16.174 55.6505 16.269 54.7991 16.2279C54.0929 16.1939 53.4092 16.0562 52.7594 15.7709C51.4625 15.2015 50.5809 14.2273 50.0532 12.9152C49.7896 12.2598 49.6454 11.5755 49.5892 10.8713C49.5285 10.1115 49.5505 9.35533 49.687 8.60458C49.8553 7.67986 50.1792 6.81902 50.7375 6.05896C51.5406 4.96542 52.62 4.31545 53.9386 4.07055C54.9227 3.8876 55.9024 3.92355 56.8595 4.23264C58.3511 4.71474 59.3864 5.71135 60.0161 7.14737C60.3149 7.82815 60.4829 8.54488 60.5356 9.28632C60.5601 9.62815 60.5639 9.97224 60.5613 10.3154C60.5594 10.593 60.4908 10.8623 60.4092 11.1438C57.7192 11.1438 55.0437 11.1438 52.3568 11.1438C52.3434 11.3482 52.365 11.5402 52.4101 11.7279C52.6464 12.7162 53.2726 13.3344 54.2231 13.6156C54.5035 13.6984 54.783 13.7417 55.0596 13.7456C55.9976 13.7456 56.8262 13.3004 57.3257 12.6196L60.2146 12.6283C60.2015 12.6841 60.192 12.7339 60.178 12.782ZM52.3863 8.86039C54.15 8.86039 55.9052 8.86039 57.6801 8.86039C57.6801 8.80069 57.682 8.75479 57.6798 8.70954C57.6391 7.85383 57.2479 7.20194 56.4991 6.81421C55.4899 6.29167 54.4711 6.33436 53.4876 6.90665C53.0443 7.16471 52.7258 7.54762 52.5352 8.03165C52.432 8.29484 52.3771 8.56735 52.3863 8.86039ZM67.5859 10.1597L72 4.18995H68.8876L66.0146 8.03967L63.1463 4.18995L60.0336 4.19059L64.4236 10.1472L60.0361 16.0107L63.2073 16.0103L66.0025 12.2797L68.7917 16.0103H71.9984L71.9876 15.9959L67.5859 10.1597Z" fill="black"/>
</g>
<defs>
<clipPath id="clip0_343_3365">
<rect width="72" height="20" fill="white"/>
</clipPath>
</defs>
</svg>
