<svg width="108" height="15" viewBox="0 0 108 15" fill="none" xmlns="http://www.w3.org/2000/svg">
<g clip-path="url(#clip0_343_3390)">
<path fill-rule="evenodd" clip-rule="evenodd" d="M11.7346 4.07307L11.5269 4.17693C11.0077 3.55384 10.5923 3.03461 10.0731 2.61923C9.65769 2.1 9.13843 1.78846 8.72306 1.58077C8.51537 1.47693 8.1 1.47693 7.58075 1.37308C7.06154 1.26923 6.43846 1.26923 5.71154 1.26923C5.60769 1.26923 5.4 1.26923 5.29616 1.26923C5.08846 1.26923 4.98461 1.26923 4.88077 1.26923C4.77693 1.26923 4.56923 1.26923 4.46539 1.26923C4.36154 1.26923 4.25769 1.26923 4.15384 1.26923C4.15384 1.37308 4.15384 1.37308 4.15384 1.47693C4.15384 1.58077 4.15384 1.68461 4.15384 1.68461C4.15384 1.78846 4.15384 1.89231 4.15384 2.1C4.15384 2.20384 4.15384 2.41154 4.15384 2.61923C4.15384 3.03461 4.15384 3.55384 4.15384 4.07307C4.15384 4.59231 4.15384 5.11154 4.15384 5.52693V7.29231H4.46539C4.67307 7.29231 4.88077 7.29231 5.08846 7.29231C5.29616 7.29231 5.60769 7.29231 5.81539 7.29231C6.02307 7.29231 6.33461 7.29231 6.43846 7.18846C6.85384 7.08461 7.26925 6.98077 7.47694 6.77307C7.68463 6.56539 7.89231 6.46154 8.1 6.25384C8.20388 6.04616 8.30769 5.83846 8.41157 5.52693C8.30769 5.21539 8.41157 4.90384 8.41157 4.69616H8.61925V10.6154H8.41157C8.30769 10.2 8.20388 9.78463 7.99612 9.36925C7.78843 8.95388 7.58075 8.64231 7.37306 8.33075C7.06154 8.12306 6.85384 7.91537 6.54231 7.81154C6.33461 7.70769 6.02307 7.70769 5.60769 7.70769C5.4 7.70769 5.29616 7.70769 5.08846 7.70769C4.98461 7.70769 4.77693 7.70769 4.67307 7.70769H3.94616V9.99231C3.94616 10.3039 3.94616 10.6154 3.94616 10.9269C3.94616 11.2384 3.94616 11.4461 3.94616 11.6539C3.94616 12.0693 3.94616 12.3807 4.05 12.7961C4.05 13.1077 4.15384 13.4193 4.25769 13.6269C4.36154 13.8346 4.56923 13.9384 4.77693 14.0423C5.08846 14.1461 5.4 14.1461 5.91923 14.25H0V14.0423C0.311539 14.0423 0.623077 13.9384 0.830769 13.8346C1.14231 13.7307 1.35 13.5231 1.45384 13.4193C1.55769 13.3154 1.55769 13.2116 1.55769 13.1077C1.55769 13.0039 1.66154 12.7961 1.66154 12.5884C1.66154 12.3807 1.76539 12.1731 1.76539 11.9654C1.76539 11.7577 1.76539 11.55 1.76539 11.3423C1.76539 11.1346 1.76539 10.9269 1.76539 10.6154C1.76539 10.3039 1.76539 9.99231 1.76539 9.68075C1.76539 9.36925 1.76539 8.95388 1.76539 8.64231V3.96923C1.76539 3.76154 1.76539 3.55384 1.76539 3.24231C1.76539 3.03461 1.76539 2.82693 1.76539 2.61923C1.76539 2.41154 1.76539 2.20384 1.66154 2.1C1.66154 1.89231 1.55769 1.78846 1.45384 1.78846C1.35 1.47693 1.14231 1.37308 0.934612 1.37308C0.726925 1.37308 0.519231 1.26923 0.207693 1.16538V0.957693H10.3846L11.7346 4.07307ZM31.8807 14.25V14.0423C31.8807 14.0423 31.9846 14.0423 32.1923 14.0423C32.4 14.0423 32.5039 13.9384 32.6077 13.9384C32.7116 13.8346 32.9193 13.8346 33.0231 13.7307C33.1269 13.6269 33.2307 13.5231 33.2307 13.3154C33.2307 13.2116 33.2307 13.0039 33.1269 12.7961C33.0231 12.5884 32.9193 12.2769 32.8154 11.8616C32.7116 11.55 32.5039 11.1346 32.4 10.6154C32.1923 10.0961 31.9846 9.68075 31.7769 9.16157H26.8961C26.6884 9.57694 26.5846 10.0961 26.3769 10.5116C26.1693 10.9269 26.0654 11.3423 25.8577 11.7577C25.65 12.3807 25.4423 12.9 25.4423 13.1077C25.4423 13.3154 25.4423 13.4193 25.5461 13.5231C25.65 13.6269 25.7539 13.7307 25.9616 13.7307C26.0654 13.8346 26.2731 13.8346 26.4807 13.8346C26.6884 13.8346 26.7923 13.9384 27 13.9384V14.25H23.0539V14.0423C23.3654 14.0423 23.6769 13.9384 23.8846 13.8346C24.0923 13.7307 24.1961 13.6269 24.3 13.5231C24.4039 13.4193 24.5077 13.2116 24.7154 12.9C24.9231 12.5884 25.1307 12.0693 25.4423 11.4461C25.65 10.8231 25.9616 10.2 26.2731 9.47306C26.5846 8.74612 26.8961 8.01925 27.3116 7.18846C27.7269 6.35769 27.9346 5.63077 28.35 4.8C28.6616 3.96923 28.9731 3.24231 29.2846 2.61923L29.0769 2.30769C29.2846 2.20384 29.4923 2.1 29.7 1.99616C29.8039 1.78846 30.0116 1.68461 30.1154 1.47693C30.2193 1.26923 30.3231 1.16538 30.4269 1.06154C30.5307 0.957693 30.6346 0.853846 30.6346 0.75H30.7384C31.1539 1.78846 31.4654 2.72307 31.7769 3.65769C32.0884 4.59231 32.4 5.42307 32.8154 6.25384C33.2307 7.08461 33.4384 7.91537 33.75 8.74612C34.0616 9.57694 34.3731 10.3039 34.6846 11.1346C34.7884 11.55 34.9961 11.8616 35.1 12.0693C35.2039 12.2769 35.3077 12.5884 35.5154 12.9C35.5154 12.9 35.6193 13.0039 35.7231 13.1077C35.8269 13.2116 35.9307 13.3154 36.0346 13.5231C36.1384 13.6269 36.3461 13.7307 36.5539 13.8346C36.7616 13.9384 36.9692 13.9384 37.2807 14.0423V14.25H31.8807ZM29.4923 3.13846C29.3884 3.24231 29.2846 3.55384 29.0769 3.86539C28.9731 4.17693 28.7654 4.59231 28.5577 5.11154C28.35 5.63077 28.1423 6.15 27.8307 6.77307C27.6231 7.39616 27.3116 8.01925 27 8.74612H31.5693C31.3616 8.22694 31.1539 7.60384 30.9461 7.08461C30.7384 6.56539 30.5307 6.04616 30.3231 5.52693C30.1154 5.00769 29.9077 4.59231 29.8039 4.17693C29.7 3.76154 29.5961 3.34616 29.4923 3.13846ZM55.4539 14.25H49.8461V14.0423C50.1577 14.0423 50.4692 13.9384 50.6769 13.8346C50.9884 13.7307 51.1961 13.5231 51.3 13.3154C51.4039 13.2116 51.4039 13.1077 51.4039 13.0039C51.4039 12.9 51.5077 12.6923 51.5077 12.4846C51.5077 12.2769 51.5077 12.0693 51.5077 11.8616C51.5077 11.6539 51.5077 11.4461 51.5077 11.2384C51.5077 11.0307 51.5077 10.8231 51.5077 10.5116C51.5077 10.2 51.5077 9.88843 51.5077 9.57694C51.5077 9.26537 51.5077 8.85 51.5077 8.53843V3.34616C51.5077 3.13846 51.5077 2.93077 51.5077 2.72307C51.5077 2.51539 51.5077 2.41154 51.4039 2.20384C51.4039 2.1 51.3 1.89231 51.1961 1.89231C50.9884 1.68461 50.7807 1.58077 50.5731 1.47693C50.3654 1.37308 50.1577 1.26923 49.8461 1.16538V0.957693H55.35V1.16538C55.1423 1.16538 54.8307 1.26923 54.5192 1.37308C54.2077 1.47693 54 1.68461 53.8961 1.99616C53.7923 2.20384 53.6884 2.51539 53.6884 2.82693C53.6884 3.13846 53.6884 3.45 53.6884 3.76154C53.6884 4.07307 53.6884 4.38461 53.6884 4.69616C53.6884 5.00769 53.6884 5.31923 53.6884 5.63077V11.7577C53.6884 12.0693 53.6884 12.4846 53.6884 12.7961C53.6884 13.1077 53.7923 13.3154 53.8961 13.5231C54 13.7307 54.3116 13.9384 54.6231 14.0423C54.9346 14.1461 55.2461 14.25 55.4539 14.25ZM83.3888 14.25H79.65C79.5463 14.1461 79.4425 14.0423 79.4425 14.0423C79.4425 13.9384 79.3388 13.9384 79.2343 13.8346C79.1306 13.7307 79.1306 13.6269 79.0269 13.5231C78.9231 13.4193 78.8194 13.2116 78.6112 12.9C78.4037 12.5884 78.1963 12.2769 77.9888 11.9654C77.7806 11.6539 77.6769 11.4461 77.4694 11.1346C77.2612 10.8231 77.0537 10.6154 76.8463 10.3039C76.6388 9.99231 76.3269 9.68075 76.1194 9.36925C75.9112 9.05769 75.6 8.85 75.2888 8.53843C74.9769 8.22694 74.6657 8.12306 74.3537 8.12306C74.0425 8.01925 73.8343 8.01925 73.7306 8.01925C73.6269 8.01925 73.5231 8.01925 73.3157 8.01925V10.0961C73.3157 10.7193 73.3157 11.1346 73.3157 11.55C73.3157 11.9654 73.3157 12.2769 73.3157 12.5884C73.3157 12.9 73.4194 13.1077 73.5231 13.3154C73.6269 13.5231 73.8343 13.6269 74.1463 13.8346C74.4575 14.0423 74.8731 14.1461 75.2888 14.1461V14.25H69.3692V14.0423C69.6807 14.0423 69.9923 13.9384 70.3038 13.8346C70.6154 13.7307 70.8231 13.6269 70.9269 13.4193C71.0307 13.3154 71.0307 13.2116 71.0307 13.1077C71.0307 13.0039 71.1343 12.7961 71.1343 12.5884C71.1343 12.3807 71.1343 12.1731 71.1343 11.9654C71.1343 11.7577 71.1343 11.55 71.1343 11.3423C71.1343 11.1346 71.1343 10.9269 71.1343 10.6154C71.1343 10.3039 71.1343 9.99231 71.1343 9.68075C71.1343 9.36925 71.1343 8.95388 71.1343 8.64231V3.96923C71.1343 3.76154 71.1343 3.55384 71.1343 3.34616C71.1343 3.13846 71.1343 2.93077 71.1343 2.72307C71.1343 2.51539 71.1343 2.30769 71.0307 2.20384C71.0307 1.99616 70.9269 1.89231 70.8231 1.89231C70.6154 1.68461 70.4077 1.58077 70.2 1.47693C69.9923 1.37308 69.6807 1.37308 69.3692 1.26923V0.957693H70.0961C70.5116 0.957693 71.0307 0.957693 71.55 0.957693C72.0694 0.957693 72.5888 0.957693 73.1075 0.957693H74.3537C75.1843 0.957693 75.9112 0.957693 76.5343 1.06154C77.1575 1.06154 77.7806 1.26923 78.3 1.58077C78.8194 1.89231 79.2343 2.20384 79.65 2.72307C79.9612 3.24231 80.1694 3.86539 80.1694 4.59231C80.1694 5.00769 80.0657 5.42307 79.9612 5.83846C79.7537 6.15 79.5463 6.56539 79.3388 6.77307C79.0269 7.08461 78.7157 7.29231 78.4037 7.5C78.0925 7.70769 77.6769 7.81154 77.2612 8.01925C77.4694 8.12306 77.6769 8.33075 77.8843 8.53843C78.0925 8.74612 78.3 8.95388 78.5075 9.26537C78.8194 9.68075 79.1306 10.2 79.5463 10.8231C79.9612 11.4461 80.2731 11.8616 80.5843 12.2769C81 12.9 81.5194 13.4193 81.9343 13.6269C82.35 13.8346 82.8694 14.1461 83.4925 14.1461V14.25H83.3888ZM78.1963 4.38461C78.1963 3.76154 78.0925 3.24231 77.7806 2.72307C77.4694 2.20384 77.0537 1.89231 76.4306 1.58077C76.1194 1.47693 75.8075 1.37308 75.4963 1.26923C75.1843 1.16538 74.8731 1.16538 74.4575 1.16538C74.25 1.16538 73.9388 1.16538 73.8343 1.16538C73.6269 1.16538 73.5231 1.16538 73.4194 1.16538C73.4194 1.26923 73.4194 1.26923 73.4194 1.37308C73.4194 1.47693 73.4194 1.47693 73.4194 1.58077C73.4194 1.68461 73.4194 1.78846 73.4194 1.89231C73.4194 1.99616 73.4194 2.30769 73.4194 2.51539C73.4194 2.93077 73.4194 3.45 73.4194 3.96923C73.4194 4.48846 73.4194 5.00769 73.4194 5.52693V7.5C73.9388 7.5 74.3537 7.5 74.8731 7.39616C75.2888 7.39616 75.7037 7.29231 76.1194 7.08461C76.5343 6.98077 76.8463 6.77307 77.1575 6.56539C77.4694 6.35769 77.6769 6.15 77.8843 5.83846C77.8843 5.94231 77.9888 5.73461 78.0925 5.42307C78.1963 5.11154 78.1963 4.8 78.1963 4.38461ZM108 10.7193L107.066 14.25H95.7463V14.0423C96.0575 14.0423 96.3694 13.9384 96.5769 13.8346C96.8888 13.7307 97.0963 13.5231 97.2 13.4193C97.3037 13.3154 97.3037 13.2116 97.3037 13.1077C97.3037 13.0039 97.4075 12.7961 97.4075 12.5884C97.4075 12.3807 97.6156 12.1731 97.6156 11.9654C97.6156 11.7577 97.6156 11.55 97.6156 11.3423C97.6156 11.1346 97.6156 10.9269 97.6156 10.6154C97.6156 10.3039 97.6156 9.99231 97.6156 9.68075C97.6156 9.36925 97.6156 8.95388 97.6156 8.64231C97.6156 8.22694 97.6156 7.91537 97.6156 7.60384V3.96923C97.6156 3.76154 97.6156 3.55384 97.6156 3.24231C97.6156 2.93077 97.6156 2.82693 97.6156 2.61923C97.6156 2.41154 97.6157 2.20384 97.5112 2.1C97.5112 1.89231 97.4075 1.78846 97.3037 1.78846C97.0963 1.58077 96.8888 1.47693 96.6806 1.37308C96.4731 1.26923 96.1612 1.26923 95.85 1.16538V0.957693H106.027L107.273 3.96923L107.066 4.07307C106.027 2.82693 105.093 1.99616 104.261 1.58077C104.054 1.47693 103.639 1.37308 103.119 1.37308C102.6 1.37308 101.873 1.26923 101.043 1.26923C100.834 1.26923 100.523 1.26923 100.211 1.26923C99.9 1.26923 99.6925 1.26923 99.5888 1.37308C99.5888 1.58077 99.5888 1.99616 99.4843 2.61923C99.4843 3.24231 99.4843 3.96923 99.4843 4.8C99.4843 5.21539 99.4843 5.63077 99.4843 5.94231C99.4843 6.25384 99.4843 6.56539 99.4843 6.77307C99.4843 6.98077 99.4843 7.08461 99.4843 7.29231C99.4843 7.39616 99.4843 7.5 99.4843 7.5C99.5888 7.5 99.6925 7.5 99.9 7.5C100.107 7.5 100.316 7.5 100.523 7.5C100.731 7.5 101.043 7.5 101.25 7.5C101.457 7.5 101.666 7.5 101.873 7.39616C102.289 7.29231 102.6 7.18846 102.807 7.08461C103.016 6.98077 103.223 6.77307 103.431 6.56539C103.534 6.35769 103.743 6.15 103.846 5.83846C103.95 5.52693 104.054 5.21539 104.054 4.90384H104.261V10.7193H104.054C103.95 10.3039 103.846 9.88843 103.639 9.47306C103.431 9.05769 103.223 8.74612 103.016 8.53843C102.807 8.33075 102.6 8.22694 102.289 8.12306C101.977 8.01925 101.666 7.91537 101.354 7.91537C101.146 7.91537 101.043 7.91537 100.939 7.91537C100.834 7.91537 100.731 7.91537 100.523 7.91537C100.419 7.91537 100.316 7.91537 100.107 7.91537C100.004 7.91537 99.7963 7.91537 99.5888 7.91537C99.5888 8.12306 99.5888 8.33075 99.5888 8.64231C99.5888 8.95388 99.5888 9.26537 99.5888 9.68075C99.5888 9.88843 99.5888 9.99231 99.5888 10.2C99.5888 10.4077 99.5888 10.6154 99.5888 10.8231C99.5888 11.0307 99.5888 11.2384 99.5888 11.3423C99.5888 11.55 99.5888 11.6539 99.5888 11.7577C99.5888 12.1731 99.5888 12.4846 99.6925 12.9C99.6925 13.2116 99.7963 13.5231 99.9 13.7307C100.004 13.9384 100.316 14.0423 100.731 14.1461C101.146 14.25 101.561 14.25 102.081 14.25C102.289 14.25 102.6 14.25 102.911 14.25C103.223 14.25 103.534 14.25 103.95 14.1461C104.366 14.1461 104.677 14.0423 104.989 13.8346C105.3 13.7307 105.611 13.5231 105.923 13.2116C106.234 13.0039 106.546 12.5884 106.857 12.2769C107.169 11.8616 107.481 11.4461 107.793 10.9269L108 10.7193Z" fill="black"/>
</g>
<defs>
<clipPath id="clip0_343_3390">
<rect width="108" height="13.5" fill="white" transform="translate(0 0.75)"/>
</clipPath>
</defs>
</svg>
