<svg width="36" height="36" viewBox="0 0 36 36" fill="none" xmlns="http://www.w3.org/2000/svg">
<g clip-path="url(#clip0_343_3380)">
<path d="M28.9923 24.3785H16.235L16.2344 26.7154L16.2979 26.6522H28.9923V24.3785Z" fill="black"/>
<path d="M16.293 21.7263L16.3562 21.664V9.28421H26.5897C26.6296 9.28652 26.6693 9.28962 26.7087 9.2935C27.1696 9.33034 27.6001 9.47537 27.9748 9.70322C28.1991 9.83281 28.3926 9.98194 28.545 10.1356C28.96 10.5537 29.3535 11.316 29.3648 11.9829L29.365 12.0769C29.3661 12.1103 29.3667 12.1438 29.3667 12.1775V13.5206C29.3671 14.239 29.367 14.9574 29.3667 15.6758V21.3674L29.3673 21.7263L29.3667 21.7895H26.7646V12.4832C26.7646 12.0172 26.4014 11.6368 25.9445 11.6122H24.1625V21.7895H21.5604V21.7263H21.5351L21.5604 21.7014V21.7L21.5351 21.7263V11.6318L21.5551 11.6109H21.5422L21.532 11.6211H18.9583V21.7895H16.3562V21.7263H16.293Z" fill="black"/>
<path fill-rule="evenodd" clip-rule="evenodd" d="M14.5269 22.3579V22.2132L14.527 22.1919V22.1763L14.5269 22.1488V9.28418H9.59172C8.05498 9.28418 6.79796 10.4807 6.70184 11.993C6.69751 12.0579 6.69531 12.1234 6.69531 12.1895V18.8716C6.69531 18.9041 6.69584 18.9365 6.6969 18.9688C6.73705 20.5336 8.01788 21.7895 9.59235 21.7895H11.8827C11.8898 21.9533 11.8888 21.9846 11.8819 22.2017L11.88 22.2644C11.8705 23.9293 10.3585 24.2722 9.76288 24.3291H8.08478V26.6526L8.14604 26.5917V26.7158H9.59615C12.3189 26.7158 14.5269 24.7648 14.5269 22.3579ZM9.30562 12.48C9.30562 11.9987 9.69531 11.6084 10.176 11.6084H11.8882V11.6101L11.8743 11.6242V19.3863L11.8882 19.4004V19.4526H10.176C9.69531 19.4526 9.30562 19.0623 9.30562 18.5811V12.48Z" fill="black"/>
<path fill-rule="evenodd" clip-rule="evenodd" d="M31.4394 0H4.56063C2.04189 0 0 2.04189 0 4.56063V31.4394C0 33.9581 2.04189 36 4.56063 36H31.4394C33.9581 36 36 33.9581 36 31.4394V31.4178C36.0004 31.392 36.0006 31.3661 36.0006 31.3402V4.65916C36.0006 4.63325 36.0004 4.6074 36 4.5816V4.56063C36 2.04189 33.9581 0 31.4394 0ZM4.46275 2.32558C3.55942 2.3957 2.80121 2.98184 2.48328 3.78886C2.39871 4.02482 2.35263 4.27913 2.35263 4.54421V31.4552C2.35263 31.5824 2.36326 31.7072 2.38366 31.8287C2.59684 32.7407 3.34919 33.4459 4.28709 33.5909C4.3806 33.6027 4.4759 33.6088 4.57263 33.6088H31.3377C32.58 33.6088 33.5874 32.6027 33.5874 31.361V4.57074C33.5874 3.32905 32.58 2.32295 31.3377 2.32295H4.57263C4.53579 2.32295 4.49916 2.32383 4.46275 2.32558Z" fill="black"/>
</g>
<defs>
<clipPath id="clip0_343_3380">
<rect width="36" height="36" fill="white"/>
</clipPath>
</defs>
</svg>
