<svg width="111" height="22" viewBox="0 0 111 22" fill="none" xmlns="http://www.w3.org/2000/svg">
<g clip-path="url(#clip0_343_3367)">
<path fill-rule="evenodd" clip-rule="evenodd" d="M13.1994 8.83819C14.5264 10.1651 15.588 12.2883 14.9687 13.5268C13.3763 16.977 1.16806 22.9042 0.106476 21.8426C-0.866646 20.8695 5.06055 8.66126 8.51071 7.06888C9.74922 6.44962 11.8724 7.51121 13.1994 8.83819Z" fill="black"/>
<path fill-rule="evenodd" clip-rule="evenodd" d="M19.6569 7.42234C19.4799 6.62615 18.8607 5.82996 18.0645 5.74149C16.5606 5.56456 14.2605 8.21853 14.4374 8.83778C14.6143 9.45704 17.8876 10.5186 19.1261 9.63398C19.7453 9.19165 19.8338 8.13006 19.6569 7.42234ZM15.0567 0.168158C16.1182 0.433555 17.2683 1.22975 17.3568 2.3798C17.6222 4.41451 13.9066 7.68773 13.0219 7.5108C12.1373 7.2454 10.6334 2.64519 11.8719 0.964349C12.5796 -0.00877255 13.9951 -0.185704 15.0567 0.168158Z" fill="black"/>
<path fill-rule="evenodd" clip-rule="evenodd" d="M47.8105 12.4352L46.7489 12.2583C45.6873 12.0813 45.068 11.7275 45.068 11.1967C45.068 10.489 45.8642 10.0466 47.0143 10.0466C47.8105 10.0466 48.5182 10.312 49.1374 10.6659L49.2259 10.7544C49.4028 10.8428 49.4913 10.8428 49.6682 10.8428C50.0221 10.8428 50.376 10.6659 50.5529 10.312L50.7298 10.1351C50.9068 9.86967 50.9068 9.60427 50.8183 9.33887C50.7298 9.07348 50.5529 8.80808 50.2875 8.71961C49.4028 8.27729 48.3413 7.83496 47.0143 7.83496C44.2718 7.83496 42.4141 9.16194 42.4141 11.2851C42.4141 13.0545 43.6526 14.2045 46.1296 14.4699L47.1912 14.6468C48.3413 14.8238 48.9605 15.1776 48.9605 15.7084C48.9605 16.2392 48.6951 16.8585 46.9258 16.8585C45.9527 16.8585 44.8911 16.5931 44.0949 16.0623C43.918 15.9738 43.741 15.8854 43.5641 15.8854C43.2103 15.8854 42.8564 16.0623 42.6795 16.4161L42.591 16.5046C42.4141 16.77 42.4141 17.0354 42.5025 17.3008C42.591 17.5662 42.7679 17.8316 43.0333 17.9201C44.4488 18.7163 46.1296 18.9817 46.9258 18.9817C49.8452 18.9817 51.6145 17.7431 51.6145 15.5315C51.6145 13.7622 50.376 12.7891 47.8105 12.4352Z" fill="black"/>
<path fill-rule="evenodd" clip-rule="evenodd" d="M81.4246 16.3279C81.2477 16.0625 80.8938 15.974 80.6284 15.974C80.4515 15.974 80.1861 16.0625 80.0092 16.1509C79.3899 16.5048 78.7707 16.6817 78.1514 16.6817C76.3821 16.6817 75.1436 15.3548 75.1436 13.4085C75.1436 11.4623 76.3821 10.1353 78.1514 10.1353C78.8591 10.1353 79.3899 10.3122 80.0092 10.6661C80.4515 10.9315 81.0708 10.843 81.4246 10.4891L81.5131 10.4007C81.7785 10.1353 81.867 9.78137 81.867 9.42751C81.867 9.07365 81.6016 8.80825 81.3362 8.54285C80.4515 8.01206 79.3899 7.6582 78.2399 7.6582C74.8782 7.6582 72.5781 9.9583 72.5781 13.32C72.5781 16.6817 74.8782 18.9818 78.2399 18.9818C79.3899 18.9818 80.4515 18.7164 81.3362 18.0972C81.6016 17.9203 81.7785 17.5664 81.867 17.2125C81.867 16.8587 81.7785 16.5048 81.6016 16.2394L81.4246 16.3279Z" fill="black"/>
<path fill-rule="evenodd" clip-rule="evenodd" d="M27.5533 3.94238C26.6686 3.94238 25.9609 4.65011 25.9609 5.53476C25.9609 6.41942 26.6686 7.03868 27.4648 7.03868C28.3495 7.03868 29.0572 6.33095 29.0572 5.53476C29.0572 4.65011 28.4379 3.94238 27.5533 3.94238Z" fill="black"/>
<path fill-rule="evenodd" clip-rule="evenodd" d="M27.9933 7.83496H27.1087C26.6664 7.83496 26.3125 8.18882 26.3125 8.63115V17.9201C26.3125 18.3624 26.6664 18.7163 27.1087 18.7163H27.9933C28.4357 18.7163 28.7895 18.3624 28.7895 17.9201V8.63115C28.7895 8.18882 28.4357 7.83496 27.9933 7.83496Z" fill="black"/>
<path fill-rule="evenodd" clip-rule="evenodd" d="M57.8943 16.5935C56.8327 16.5935 55.6827 15.7973 55.6827 14.3818V10.224H57.8943C58.3367 10.224 58.6905 9.8701 58.6905 9.42778V8.63159C58.6905 8.18926 58.3367 7.8354 57.8943 7.8354H55.6827V5.44682C55.6827 5.0045 55.3288 4.65063 54.8865 4.65063H53.9134C53.471 4.65063 53.1172 5.0045 53.1172 5.44682V14.2934C53.1172 16.8589 55.0634 19.0705 57.7174 19.0705C57.9828 19.0705 58.2482 18.9821 58.4251 18.8051C58.6021 18.6282 58.6905 18.3628 58.6905 18.0974V17.4781C58.779 17.0358 58.4251 16.5935 57.8943 16.5935Z" fill="black"/>
<path fill-rule="evenodd" clip-rule="evenodd" d="M35.8668 7.74689C32.5935 7.74689 30.8242 10.3124 30.8242 12.524V17.9204C30.8242 18.3628 31.1781 18.7166 31.6204 18.7166H32.5051C32.9474 18.7166 33.3013 18.3628 33.3013 17.9204V12.8779C33.3013 11.197 34.3628 10.047 35.7783 10.047C37.1937 10.047 38.3438 11.2855 38.3438 12.9664V18.0089C38.3438 18.4512 38.6977 18.8051 39.14 18.8051H40.0246C40.467 18.8051 40.8208 18.4512 40.8208 18.0089V12.6125C40.9093 10.3124 39.0515 7.74689 35.8668 7.74689Z" fill="black"/>
<path fill-rule="evenodd" clip-rule="evenodd" d="M102.483 7.83535C102.129 7.74689 101.244 7.74689 100.802 7.74689H100.713C98.2362 7.74689 95.8477 9.7816 95.8477 12.6125V12.701V18.0089C95.8477 18.4512 96.2015 18.8051 96.6438 18.8051H97.5285C97.9708 18.8051 98.3247 18.4512 98.3247 18.0089V12.701C98.3247 11.197 99.3863 10.1355 100.802 10.1355C101.067 10.1355 101.333 10.1355 101.598 10.2239C101.686 10.2239 101.775 10.2239 101.775 10.2239C102.306 10.2239 102.748 9.87006 102.836 9.33927C102.925 9.16234 102.925 8.98541 103.013 8.80847C103.102 8.63154 103.013 8.45461 102.925 8.27768C102.836 8.01228 102.66 7.92382 102.483 7.83535Z" fill="black"/>
<path fill-rule="evenodd" clip-rule="evenodd" d="M109.207 10.2238C109.649 10.2238 110.003 9.86986 110.003 9.42754V8.63135C110.003 8.18902 109.649 7.83516 109.207 7.83516H106.995V5.44658C106.995 5.00426 106.641 4.65039 106.199 4.65039H105.226C104.784 4.65039 104.43 5.00426 104.43 5.44658V14.2932C104.43 16.8587 106.376 19.0703 109.03 19.0703C109.295 19.0703 109.561 18.9819 109.738 18.8049C109.915 18.628 110.003 18.3626 110.003 18.0972V17.4779C110.003 17.0356 109.649 16.6818 109.207 16.6818C108.145 16.6818 106.995 15.8856 106.995 14.4701V10.2238H109.207Z" fill="black"/>
<path fill-rule="evenodd" clip-rule="evenodd" d="M91.6005 8.63154C90.7158 8.10075 89.6542 7.74689 88.5042 7.74689C88.5042 7.74689 88.5042 7.74689 88.4157 7.74689C88.4157 7.74689 88.4157 7.74689 88.3272 7.74689C87.1772 7.74689 86.1156 8.01228 85.2309 8.63154C83.727 9.60466 82.7539 11.2855 82.7539 13.4087C82.7539 15.6203 83.8155 17.3896 85.4079 18.3628C86.2041 18.8051 87.0887 19.0705 88.0618 19.0705C89.9196 19.0705 90.9812 18.0089 91.3351 17.5666V17.9204C91.3351 18.3628 91.6889 18.7166 92.1313 18.7166H93.0159C93.4582 18.7166 93.8121 18.3628 93.8121 17.9204V13.3202C94.0775 11.2855 93.1044 9.60466 91.6005 8.63154ZM89.4773 16.505C89.2119 16.5934 88.858 16.6819 88.5926 16.6819C88.5926 16.6819 88.5926 16.6819 88.5042 16.6819C88.5042 16.6819 88.5042 16.6819 88.4157 16.6819C88.4157 16.6819 88.4157 16.6819 88.3272 16.6819C88.3272 16.6819 88.3272 16.6819 88.2388 16.6819C87.9734 16.6819 87.6195 16.5934 87.3541 16.505C86.2041 16.0627 85.4079 14.9126 85.4079 13.4087C85.4079 11.6394 86.4695 10.3124 88.0618 10.1355H88.1503C88.1503 10.1355 88.1503 10.1355 88.2388 10.1355H88.3272H88.4157C88.4157 10.1355 88.4157 10.1355 88.5042 10.1355H88.5926C90.185 10.3124 91.2466 11.6394 91.2466 13.4087C91.512 14.9126 90.7158 16.0627 89.4773 16.505Z" fill="black"/>
<path fill-rule="evenodd" clip-rule="evenodd" d="M68.6004 8.63154C67.7158 8.10075 66.6542 7.74689 65.5041 7.74689C65.5041 7.74689 65.5041 7.74689 65.4156 7.74689C65.4156 7.74689 65.4156 7.74689 65.3272 7.74689C64.1771 7.74689 63.1155 8.01228 62.2309 8.63154C60.727 9.60466 59.7539 11.2855 59.7539 13.4087C59.7539 15.6203 60.8154 17.3896 62.4078 18.3628C63.204 18.8051 64.0887 19.0705 65.0618 19.0705C66.9196 19.0705 67.9812 18.0089 68.335 17.5666V17.9204C68.335 18.3628 68.6889 18.7166 69.1312 18.7166H70.0159C70.4582 18.7166 70.8121 18.3628 70.8121 17.9204V13.3202C71.0774 11.2855 70.1043 9.60466 68.6004 8.63154ZM66.4772 16.505C66.2118 16.5934 65.858 16.6819 65.5926 16.6819C65.5926 16.6819 65.5926 16.6819 65.5041 16.6819C65.5041 16.6819 65.5041 16.6819 65.4156 16.6819C65.4156 16.6819 65.4156 16.6819 65.3272 16.6819C65.3272 16.6819 65.3272 16.6819 65.2387 16.6819C64.9733 16.6819 64.6195 16.5934 64.3541 16.505C63.204 16.0627 62.4078 14.9126 62.4078 13.4087C62.4078 11.6394 63.4694 10.3124 65.0618 10.1355H65.1503C65.1503 10.1355 65.1503 10.1355 65.2387 10.1355H65.3272H65.4156C65.4156 10.1355 65.4157 10.1355 65.5041 10.1355H65.5926C67.185 10.3124 68.2465 11.6394 68.2465 13.4087C68.4235 14.9126 67.6273 16.0627 66.4772 16.505Z" fill="black"/>
</g>
<defs>
<clipPath id="clip0_343_3367">
<rect width="111" height="22" fill="white"/>
</clipPath>
</defs>
</svg>
