<svg width="72" height="19" viewBox="0 0 72 19" fill="none" xmlns="http://www.w3.org/2000/svg">
<g clip-path="url(#clip0_343_3392)">
<path d="M26.9211 4.21306H22.936C22.6621 4.21306 22.4291 4.41116 22.3883 4.67916L20.7744 14.8983C20.7395 15.1023 20.8968 15.2829 21.1007 15.2829H23C23.2739 15.2829 23.5069 15.0848 23.5477 14.8168L23.9846 12.061C24.0255 11.793 24.2585 11.5949 24.5324 11.5949H25.7966C28.4242 11.5949 29.9332 10.3247 30.3294 7.80784C30.51 6.70668 30.3352 5.83857 29.8225 5.23848C29.2574 4.56264 28.2553 4.21306 26.9211 4.21306ZM27.3814 7.94184C27.1658 9.36924 26.0704 9.36924 25.0159 9.36924H24.4158L24.8353 6.70086C24.8586 6.53773 24.9984 6.4212 25.1616 6.4212H25.4354C26.1578 6.4212 26.8336 6.4212 27.1833 6.82904C27.3988 7.07956 27.4629 7.44079 27.3814 7.94184Z" fill="black"/>
<path d="M38.8336 7.89571H36.9226C36.7595 7.89571 36.6196 8.01223 36.5964 8.17537L36.5089 8.71138L36.3749 8.51912C35.9613 7.91901 35.0407 7.72092 34.1202 7.72092C32.0111 7.72092 30.2108 9.31731 29.8612 11.5604C29.6806 12.679 29.937 13.7452 30.572 14.491C31.1547 15.1785 31.9878 15.464 32.9724 15.464C34.6737 15.464 35.6117 14.3686 35.6117 14.3686L35.5244 14.8988C35.4893 15.1028 35.6467 15.2834 35.8505 15.2834H37.5693C37.8432 15.2834 38.0703 15.0853 38.117 14.8172L39.1482 8.28606C39.1949 8.08215 39.0375 7.89571 38.8336 7.89571ZM36.1768 11.6129C35.9904 12.7024 35.1281 13.4364 34.027 13.4364C33.4735 13.4364 33.0307 13.2558 32.7452 12.9237C32.4656 12.5916 32.3549 12.1139 32.4481 11.5837C32.617 10.5058 33.5026 9.74843 34.5863 9.74843C35.1281 9.74843 35.5709 9.92904 35.8564 10.267C36.1419 10.6049 36.2584 11.0826 36.1768 11.6129Z" fill="black"/>
<path d="M48.9976 7.89589H47.0749C46.8943 7.89589 46.7195 7.9891 46.6147 8.14059L43.9695 12.0383L42.8509 8.29207C42.781 8.05902 42.5655 7.89589 42.3207 7.89589H40.4388C40.2117 7.89589 40.0485 8.11728 40.1242 8.33285L42.2333 14.532L40.2466 17.3344C40.0893 17.5557 40.2466 17.8587 40.5146 17.8587H42.4314C42.612 17.8587 42.781 17.7713 42.8859 17.6198L49.2656 8.41442C49.4228 8.19885 49.2656 7.89589 48.9976 7.89589Z" fill="black"/>
<path d="M55.3468 4.2131H51.3617C51.0878 4.2131 50.8606 4.4112 50.8141 4.67921L49.2002 14.8984C49.1652 15.1023 49.3225 15.2829 49.5264 15.2829H51.5715C51.7637 15.2829 51.9268 15.1431 51.956 14.9567L52.4162 12.061C52.4571 11.7931 52.6901 11.595 52.9639 11.595H54.2224C56.85 11.595 58.3649 10.3248 58.7551 7.80789C58.9358 6.70673 58.761 5.83862 58.2483 5.23852C57.6831 4.56268 56.681 4.2131 55.3468 4.2131ZM55.8071 7.94189C55.5915 9.36929 54.4962 9.36929 53.4416 9.36929H52.8416L53.261 6.70091C53.2844 6.53777 53.4242 6.42125 53.5873 6.42125H53.8612C54.5777 6.42125 55.2595 6.42125 55.609 6.82908C55.8246 7.07961 55.8887 7.44084 55.8071 7.94189Z" fill="black"/>
<path d="M67.2516 7.89571H65.3465C65.1833 7.89571 65.0434 8.01223 65.0202 8.17537L64.9386 8.71138L64.8046 8.51912C64.391 7.91901 63.4704 7.72092 62.5499 7.72092C60.4408 7.72092 58.6404 9.31731 58.2909 11.5604C58.1103 12.679 58.3666 13.7452 59.0017 14.491C59.5843 15.1785 60.4174 15.464 61.4021 15.464C63.1033 15.464 64.0413 14.3686 64.0413 14.3686L63.954 14.8988C63.919 15.1028 64.0764 15.2834 64.2802 15.2834H65.9989C66.2728 15.2834 66.5 15.0853 66.5467 14.8172L67.5837 8.28023C67.6129 8.08215 67.4555 7.89571 67.2516 7.89571ZM64.5948 11.6129C64.4142 12.7024 63.5461 13.4364 62.4449 13.4364C61.8915 13.4364 61.4487 13.2558 61.1632 12.9237C60.8835 12.5916 60.7729 12.1139 60.866 11.5837C61.0409 10.5058 61.9206 9.74843 63.0043 9.74843C63.5461 9.74843 63.9889 9.92904 64.2744 10.267C64.5657 10.6049 64.6764 11.0826 64.5948 11.6129Z" fill="black"/>
<path d="M69.5015 4.49276L67.8643 14.8984C67.8293 15.1023 67.9867 15.2829 68.1905 15.2829H69.8335C70.1074 15.2829 70.3404 15.0849 70.3812 14.8169L71.995 4.59764C72.03 4.39372 71.8727 4.2131 71.6687 4.2131H69.8277C69.6704 4.2131 69.5305 4.32963 69.5015 4.49276Z" fill="black"/>
<path d="M4.23527 17.2632L4.53823 15.329L3.85657 15.3115H0.617188L2.87193 1.03138C2.87776 0.990596 2.90107 0.949813 2.9302 0.920681C2.96516 0.89155 3.00594 0.874071 3.05255 0.874071H8.51755C10.3295 0.874071 11.5822 1.25278 12.2405 1.99853C12.5493 2.34811 12.7415 2.71516 12.8348 3.11716C12.9338 3.53665 12.9338 4.04354 12.8406 4.6553L12.8348 4.7019V5.09809L13.1436 5.27287C13.3999 5.40688 13.6097 5.56418 13.767 5.7448C14.0292 6.04194 14.1981 6.42064 14.268 6.87508C14.3438 7.34119 14.3146 7.88885 14.1981 8.51226C14.0582 9.22889 13.8311 9.85231 13.5281 10.365C13.2484 10.837 12.8872 11.2272 12.4619 11.5303C12.0541 11.8157 11.5764 12.0372 11.0286 12.1769C10.4985 12.3168 9.8984 12.3808 9.24004 12.3808H8.81472C8.51172 12.3808 8.21459 12.4915 7.98154 12.6838C7.74848 12.8819 7.597 13.1558 7.5504 13.4587L7.51544 13.6335L6.97943 17.0419L6.95612 17.1701C6.95029 17.2108 6.93864 17.2283 6.92116 17.2399C6.90951 17.2516 6.88621 17.2574 6.8629 17.2574C6.85707 17.2632 4.23527 17.2632 4.23527 17.2632Z" fill="black"/>
<path d="M13.432 4.75021C13.4145 4.85508 13.3971 4.95995 13.3738 5.07065C12.6513 8.77031 10.1868 10.0521 7.04067 10.0521H5.43846C5.05392 10.0521 4.72766 10.3317 4.6694 10.7104L3.8479 15.9132L3.61485 17.3873C3.57407 17.6378 3.76633 17.8593 4.02268 17.8593H6.86588C7.2038 17.8593 7.48929 17.6145 7.54173 17.2825L7.57086 17.1368L8.10686 13.7401L8.14183 13.5537C8.19426 13.2216 8.47974 12.9769 8.81768 12.9769H9.24301C11.9988 12.9769 14.1545 11.8582 14.7838 8.61883C15.0459 7.26714 14.9119 6.13685 14.2128 5.34449C13.9972 5.11143 13.735 4.91335 13.432 4.75021Z" fill="black"/>
<path d="M12.6751 4.44602C12.5644 4.41689 12.4538 4.38775 12.3372 4.35863C12.2206 4.33533 12.0983 4.31201 11.9759 4.28871C11.5448 4.2188 11.0729 4.18967 10.5602 4.18967H6.27793C6.17306 4.18967 6.07402 4.21297 5.98079 4.25376C5.78853 4.3528 5.63705 4.53924 5.60209 4.76647L4.6932 10.5344L4.66406 10.7034C4.72233 10.3247 5.0486 10.045 5.43313 10.045H7.03534C10.1815 10.045 12.6519 8.76908 13.3684 5.0636C13.3918 4.9529 13.4093 4.84803 13.4267 4.74316C13.2461 4.64411 13.048 4.56255 12.8325 4.49263C12.7858 4.48098 12.7334 4.4635 12.6751 4.44602Z" fill="#0D0D0D"/>
<path d="M5.59939 4.76666C5.63435 4.53943 5.78 4.35299 5.9781 4.25395C6.06549 4.21317 6.17036 4.18986 6.27523 4.18986H10.5575C11.0644 4.18986 11.5363 4.22482 11.9732 4.29474C12.0956 4.31221 12.218 4.33551 12.3345 4.36465C12.451 4.39378 12.5675 4.41708 12.6724 4.45204C12.7249 4.46952 12.7832 4.487 12.8356 4.50448C13.0453 4.57439 13.2434 4.65596 13.4298 4.755C13.6454 3.38584 13.4298 2.45947 12.6899 1.61467C11.8742 0.676648 10.4002 0.280464 8.51833 0.280464H3.05334C2.6688 0.280464 2.34253 0.560123 2.28427 0.938828L0.0062165 15.3703C-0.0403933 15.6559 0.181004 15.9122 0.472315 15.9122H3.8457L4.6905 10.5346L5.59939 4.76666Z" fill="black"/>
</g>
<defs>
<clipPath id="clip0_343_3392">
<rect width="72" height="18.439" fill="white" transform="translate(0 0.280488)"/>
</clipPath>
</defs>
</svg>
