<svg width="100" height="24" viewBox="0 0 100 24" fill="none" xmlns="http://www.w3.org/2000/svg">
<g clip-path="url(#clip0_343_3363)">
<path fill-rule="evenodd" clip-rule="evenodd" d="M0 11.9495C0 5.34999 5.34999 0 11.9495 0C18.549 0 23.899 5.34999 23.899 11.9495C23.899 18.5489 18.549 23.8989 11.9495 23.8989C10.7176 23.8989 9.52944 23.7122 8.41141 23.3661C8.89853 22.5724 9.62681 21.2713 9.89657 20.2334C10.0418 19.6743 10.641 17.3928 10.641 17.3928C11.0307 18.1359 12.169 18.7649 13.3799 18.7649C16.9839 18.7649 19.5806 15.4506 19.5806 11.3324C19.5806 7.38476 16.3592 4.4309 12.2139 4.4309C7.05721 4.4309 4.31845 7.89265 4.31845 11.6621C4.31845 13.4146 5.25155 15.5966 6.74396 16.2913C6.97042 16.3967 7.09149 16.3503 7.1436 16.1316C7.16087 16.0591 7.20898 15.8637 7.26527 15.6351C7.33799 15.3398 7.42434 14.9891 7.47547 14.7764C7.50456 14.6556 7.49026 14.552 7.3926 14.4336C6.89892 13.835 6.50328 12.7337 6.50328 11.7066C6.50328 9.07112 8.49898 6.52092 11.899 6.52092C14.8346 6.52092 16.8904 8.52131 16.8904 11.3824C16.8904 14.615 15.2578 16.8544 13.134 16.8544C11.9609 16.8544 11.083 15.8844 11.3645 14.6951C11.4864 14.1811 11.6496 13.6525 11.8083 13.1385C12.0882 12.2318 12.3541 11.3708 12.3541 10.7164C12.3541 9.79862 11.8617 9.03321 10.8422 9.03321C9.64307 9.03321 8.67999 10.2737 8.67999 11.9353C8.67999 12.9935 9.03742 13.7094 9.03742 13.7094C9.03742 13.7094 7.85337 18.7164 7.63621 19.649C7.39593 20.6812 7.49036 22.1352 7.59477 23.0806C3.14967 21.3395 0 17.0119 0 11.9495ZM40.9542 3.97401C42.0027 3.97401 42.8527 4.82394 42.8527 5.87253C42.8527 6.92101 42.0027 7.77095 40.9542 7.77095C39.9057 7.77095 39.0557 6.92101 39.0557 5.87253C39.0557 4.82394 39.9057 3.97401 40.9542 3.97401ZM43.1977 8.53229H46.2462V9.89149H46.3043C47.0422 8.82351 47.9936 8.24108 49.3723 8.24108C51.547 8.24108 52.8285 9.79442 52.8285 12.008V18.4738H49.6635V12.6488C49.6635 11.6002 49.1393 10.8817 48.1102 10.8817C47.0617 10.8817 46.3626 11.7555 46.3626 12.9788V18.4738H43.1977V8.53229ZM39.3717 8.53233H42.5368V18.4739H39.3717V8.53233ZM75.0883 8.38872C74.998 8.38059 74.8945 8.37696 74.7733 8.37696C73.5695 8.37696 72.754 8.90121 72.0549 10.0857H71.9967V8.53232H68.9676V18.4737H72.1326V14.0079C72.1326 11.9386 73.2785 10.9798 75.0883 11.1471V8.38872ZM90.1608 12.1206C90.3106 12.1466 90.4643 12.1733 90.62 12.2021C92.3676 12.4934 94.4258 12.9399 94.4258 15.4837C94.4258 17.6583 92.5036 18.7845 89.9016 18.7845C87.1028 18.7845 85.3089 17.5468 85.087 15.5031H88.1028C88.2964 16.3224 88.9277 16.7263 89.8823 16.7263C90.8337 16.7263 91.4356 16.3768 91.4356 15.736C91.4356 14.9363 90.4704 14.7748 89.3206 14.5825C89.1863 14.56 89.0495 14.5371 88.9114 14.5128C87.1833 14.2214 85.3386 13.7554 85.3386 11.4255C85.3386 9.32841 87.2803 8.24104 89.6299 8.24104C92.4453 8.24104 93.9598 9.46437 94.1152 11.4255H91.2026C91.0861 10.5323 90.4841 10.2604 89.6103 10.2604C88.8338 10.2604 88.2318 10.5516 88.2318 11.1731C88.2318 11.7858 89.0971 11.936 90.1608 12.1206ZM79.998 10.4934C81.0271 10.4934 81.7649 11.2506 81.8815 12.4352H77.9592C78.1728 11.2506 78.7942 10.4934 79.998 10.4934ZM80.1728 16.4932C78.8718 16.4932 78.134 15.6583 77.9397 14.3185H85.0853C85.1047 12.2992 84.5223 10.571 83.3377 9.48376C82.4834 8.70709 81.3572 8.24103 79.9396 8.24103C76.9106 8.24103 74.8331 10.5128 74.8331 13.4837C74.8331 16.4932 76.8525 18.7651 80.1339 18.7651C81.3959 18.7651 82.4057 18.435 83.2406 17.8525C84.1144 17.2505 84.6969 16.3962 84.9104 15.5031H81.8232C81.5513 16.1244 81.0077 16.4932 80.1728 16.4932ZM99.9612 16.1311L100 16.1295V18.4756C99.6822 18.5376 99.1503 18.5903 98.4465 18.5903C96.6018 18.5903 95.2814 17.9885 95.2814 15.8525V10.5128H94.31V8.5323H95.2814V5.38674H98.3688V8.5323H100V10.5128H98.3688V15.1729C98.3688 15.9496 98.7959 16.1438 99.4756 16.1438C99.6409 16.1438 99.8197 16.1367 99.9612 16.1311ZM58.4806 16.134C58.3544 16.1389 58.2086 16.1438 58.0724 16.1438C57.3929 16.1438 56.9657 15.9496 56.9657 15.1729V10.5128H58.4806V8.53229H56.9657V5.38674H53.8784V8.53229H52.8489V10.5128H53.8784V15.8525C53.8784 17.9885 55.1987 18.5903 57.0434 18.5903C57.6675 18.5903 58.1562 18.5488 58.4806 18.4962V16.134ZM63.491 10.4933C64.5201 10.4933 65.258 11.2507 65.3745 12.4351H61.4522C61.6658 11.2507 62.2871 10.4933 63.491 10.4933ZM63.4328 8.24109C60.4037 8.24109 58.3261 10.5128 58.3261 13.4836C58.3261 16.4932 60.3454 18.7651 63.6269 18.7651C64.8891 18.7651 65.8988 18.4349 66.7336 17.8525C67.6075 17.2505 68.1899 16.3962 68.4035 15.503H65.3161C65.0444 16.1243 64.5007 16.4932 63.6658 16.4932C62.3648 16.4932 61.6269 15.6583 61.4329 14.3186H68.5783C68.5977 12.2992 68.0152 10.5711 66.8308 9.48372C65.9764 8.70706 64.8502 8.24109 63.4328 8.24109ZM33.8753 11.1148C35.118 11.1148 35.817 10.3769 35.817 9.27007C35.817 8.1634 35.0985 7.4838 33.8753 7.4838H31.448V11.1148H33.8753ZM28.2438 4.59067H33.7399C35.4291 4.59067 36.6718 5.05663 37.5262 5.87219C38.4194 6.70704 38.9243 7.89158 38.9243 9.28956C38.9243 11.9497 37.0796 13.8332 34.2253 13.8332H31.448V18.4738H28.2438V4.59067Z" fill="black"/>
</g>
<defs>
<clipPath id="clip0_343_3363">
<rect width="100" height="24" fill="white"/>
</clipPath>
</defs>
</svg>
