<svg width="146" height="22" viewBox="0 0 146 22" fill="none" xmlns="http://www.w3.org/2000/svg">
<g clip-path="url(#clip0_281_1447)">
<path d="M21.9427 8.43922C21.7986 7.99374 21.4035 7.67734 20.9361 7.63521L14.5862 7.05864L12.0754 1.18167C11.8902 0.750968 11.4686 0.472168 11.0001 0.472168C10.5316 0.472168 10.11 0.750968 9.92486 1.18268L7.41398 7.05864L1.06317 7.63521C0.59654 7.67835 0.202426 7.99374 0.0575701 8.43922C-0.0872853 8.88469 0.0464919 9.37331 0.399483 9.68131L5.19918 13.8907L3.78386 20.1252C3.6803 20.5836 3.85822 21.0574 4.23857 21.3324C4.44301 21.4801 4.6822 21.5553 4.9234 21.5553C5.13137 21.5553 5.33766 21.4992 5.5228 21.3884L11.0001 18.1148L16.4754 21.3884C16.8761 21.6294 17.3811 21.6075 17.7606 21.3324C18.1412 21.0566 18.3189 20.5826 18.2154 20.1252L16.8 13.8907L21.5997 9.68215C21.9527 9.37331 22.0875 8.88553 21.9427 8.43922Z" fill="#FFC107"/>
</g>
<g clip-path="url(#clip1_281_1447)">
<path d="M52.9427 8.43922C52.7986 7.99374 52.4035 7.67734 51.9361 7.63521L45.5862 7.05864L43.0754 1.18167C42.8902 0.750968 42.4686 0.472168 42.0001 0.472168C41.5316 0.472168 41.11 0.750968 40.9249 1.18268L38.414 7.05864L32.0632 7.63521C31.5965 7.67835 31.2024 7.99374 31.0576 8.43922C30.9127 8.88469 31.0465 9.37331 31.3995 9.68131L36.1992 13.8907L34.7839 20.1252C34.6803 20.5836 34.8582 21.0574 35.2386 21.3324C35.443 21.4801 35.6822 21.5553 35.9234 21.5553C36.1314 21.5553 36.3377 21.4992 36.5228 21.3884L42.0001 18.1148L47.4754 21.3884C47.8761 21.6294 48.3811 21.6075 48.7606 21.3324C49.1412 21.0566 49.3189 20.5826 49.2154 20.1252L47.8 13.8907L52.5997 9.68215C52.9527 9.37331 53.0875 8.88553 52.9427 8.43922Z" fill="#FFC107"/>
</g>
<g clip-path="url(#clip2_281_1447)">
<path d="M83.9427 8.43922C83.7986 7.99374 83.4035 7.67734 82.9361 7.63521L76.5862 7.05864L74.0754 1.18167C73.8902 0.750968 73.4686 0.472168 73.0001 0.472168C72.5316 0.472168 72.11 0.750968 71.9249 1.18268L69.414 7.05864L63.0632 7.63521C62.5965 7.67835 62.2024 7.99374 62.0576 8.43922C61.9127 8.88469 62.0465 9.37331 62.3995 9.68131L67.1992 13.8907L65.7839 20.1252C65.6803 20.5836 65.8582 21.0574 66.2386 21.3324C66.443 21.4801 66.6822 21.5553 66.9234 21.5553C67.1314 21.5553 67.3377 21.4992 67.5228 21.3884L73.0001 18.1148L78.4754 21.3884C78.8761 21.6294 79.3811 21.6075 79.7606 21.3324C80.1412 21.0566 80.3189 20.5826 80.2154 20.1252L78.8 13.8907L83.5997 9.68215C83.9527 9.37331 84.0875 8.88553 83.9427 8.43922Z" fill="#FFC107"/>
</g>
<g clip-path="url(#clip3_281_1447)">
<path d="M114.943 8.43922C114.799 7.99374 114.404 7.67734 113.936 7.63521L107.586 7.05864L105.075 1.18167C104.89 0.750968 104.469 0.472168 104 0.472168C103.532 0.472168 103.11 0.750968 102.925 1.18268L100.414 7.05864L94.0632 7.63521C93.5965 7.67835 93.2024 7.99374 93.0576 8.43922C92.9127 8.88469 93.0465 9.37331 93.3995 9.68131L98.1992 13.8907L96.7839 20.1252C96.6803 20.5836 96.8582 21.0574 97.2386 21.3324C97.443 21.4801 97.6822 21.5553 97.9234 21.5553C98.1314 21.5553 98.3377 21.4992 98.5228 21.3884L104 18.1148L109.475 21.3884C109.876 21.6294 110.381 21.6075 110.761 21.3324C111.141 21.0566 111.319 20.5826 111.215 20.1252L109.8 13.8907L114.6 9.68215C114.953 9.37331 115.088 8.88553 114.943 8.43922Z" fill="#FFC107"/>
</g>
<g clip-path="url(#clip4_281_1447)">
<path d="M145.943 8.43922C145.799 7.99374 145.404 7.67734 144.936 7.63521L138.586 7.05864L136.075 1.18167C135.89 0.750968 135.469 0.472168 135 0.472168C134.532 0.472168 134.11 0.750968 133.925 1.18268L131.414 7.05864L125.063 7.63521C124.597 7.67835 124.202 7.99374 124.058 8.43922C123.913 8.88469 124.046 9.37331 124.399 9.68131L129.199 13.8907L127.784 20.1252C127.68 20.5836 127.858 21.0574 128.239 21.3324C128.443 21.4801 128.682 21.5553 128.923 21.5553C129.131 21.5553 129.338 21.4992 129.523 21.3884L135 18.1148L140.475 21.3884C140.876 21.6294 141.381 21.6075 141.761 21.3324C142.141 21.0566 142.319 20.5826 142.215 20.1252L140.8 13.8907L145.6 9.68215C145.953 9.37331 146.088 8.88553 145.943 8.43922Z" fill="#FFC107"/>
</g>
<defs>
<clipPath id="clip0_281_1447">
<rect width="22" height="22" fill="white"/>
</clipPath>
<clipPath id="clip1_281_1447">
<rect width="22" height="22" fill="white" transform="translate(31)"/>
</clipPath>
<clipPath id="clip2_281_1447">
<rect width="22" height="22" fill="white" transform="translate(62)"/>
</clipPath>
<clipPath id="clip3_281_1447">
<rect width="22" height="22" fill="white" transform="translate(93)"/>
</clipPath>
<clipPath id="clip4_281_1447">
<rect width="22" height="22" fill="white" transform="translate(124)"/>
</clipPath>
</defs>
</svg>
